<svg transform="scale(1)" id="_0530_Empty_Cart_2" xmlns="http://www.w3.org/2000/svg" viewBox="0 0 500 500" class="show_show__wrapper__graphic__5Waiy "><title>React</title><defs><style>.cls-1{fill:#fff;}.cls-2{fill:#F43072;}.cls-3{opacity:.22;}.cls-4{opacity:.11;}.cls-5{opacity:.55;}.cls-6{fill:#231f20;}</style></defs><g id="fly"><g><g><path class="cls-6" d="M109.64,65.82c1.14-3.76,5.24-6.63,9.05-5.66s5.96,6.28,3.38,9.25c2.75-2,5.89-3.6,9.27-3.94s7.02,.71,9.24,3.28c3.19,3.7,2.47,9.89-1.12,13.2-3.59,3.31-9.33,3.73-13.68,1.51-4.35-2.21-7.3-6.7-8.29-11.49-2.54,.77-5.47,.93-7.7-.52-2.23-1.45-3.21-4.9-1.41-6.86"></path><path class="cls-6" d="M111.06,65.55c.6-1.84,1.79-3.52,3.49-4.51,1.49-.87,3.23-.53,4.59,.46,2.49,1.81,3.53,5.66,1.5,8.17-.29,.36,.93,.26,.97,.25,.62-.08,1.26-.29,1.76-.65,3.55-2.54,7.68-4.26,12.01-2.66,3.47,1.29,5.7,4.37,5.77,8.08,.07,3.5-1.72,7.05-4.86,8.72-3.32,1.77-7.63,.72-10.6-1.29-3.59-2.42-5.85-6.36-6.76-10.54-.09-.4-1.4-.06-1.56-.02-2.48,.71-5.57,.59-7.32-1.59-1.3-1.62-1.64-4-.26-5.66,.32-.38-1.07-.24-1.15-.23-.57,.1-1.32,.29-1.71,.76-1.76,2.11-.88,5.34,1.21,6.89,2.65,1.98,6.48,1.48,9.44,.63l-1.56-.02c.99,4.54,3.62,8.85,7.71,11.22,3.98,2.31,8.95,2.29,13.16,.6,4.06-1.63,6.93-5.13,7.14-9.59,.21-4.67-2.91-8.3-7.36-9.39-5.59-1.38-11.44,1.12-15.92,4.33,.91-.13,1.82-.27,2.73-.4,2.68-3.31,.29-8.54-3.61-9.52-4.66-1.18-10.2,1.96-11.67,6.47-.15,.47,2.62,.18,2.85-.53h0Z"></path></g><g><path class="cls-1" d="M125.82,68.26c-1.7-10.52,5.83-21.7,16.22-24.08,2.46-.56,5.36-.56,7.16,1.22,2.98,2.96,.72,8.04-1.98,11.26-3,3.58-6.53,6.86-10.83,8.68-4.3,1.82-9.48,2-13.5-.38-5.01-2.97-7.19-9.14-7.68-14.94-.2-2.39,.72-5.7,3.1-5.44,.68,.07,1.28,.46,1.82,.87,5,3.72,7.71,10.3,6.78,16.46"></path><path class="cls-6" d="M127.26,67.88c-1.06-6.97,1.97-14.32,7.35-18.82,2.59-2.17,5.87-3.9,9.29-4.14,1.82-.13,3.72,.37,4.69,2.05,.88,1.53,.58,3.46-.02,5.03-1.39,3.63-4.43,6.76-7.39,9.18-3.21,2.64-7.09,4.59-11.34,4.54-8.46-.11-12.51-8.27-13.15-15.71-.08-.89-.04-1.8,.18-2.67,.1-.4,.48-1.65,.9-1.73,.72-.13,2.14,1.37,2.6,1.81,.76,.73,1.45,1.54,2.07,2.4,2.52,3.53,3.61,7.94,3.01,12.23-.2,1.43,2.76,1.02,2.93-.24,.63-4.59-.53-9.3-3.18-13.09-2.07-2.96-7.08-7.8-10.28-3.4-1.1,1.51-1.3,3.49-1.15,5.3,.2,2.26,.66,4.52,1.43,6.66,1.55,4.27,4.45,7.99,8.81,9.6,9.75,3.6,20.12-3.44,25.49-11.22,2.24-3.25,4.19-8.45,.41-11.4-3.53-2.75-9.12-1.14-12.72,.64-8.67,4.29-14.3,14.11-12.82,23.78,.2,1.29,3.1,.57,2.9-.78h0Z"></path></g></g><g class="cls-3"><path class="cls-6" d="M145.29,86.58c11.13,4.36,23.36,5.45,35.15,3.6,11.84-1.86,23.24-6.58,32.78-13.87,4.86-3.71,9.23-8.13,12.81-13.1,3.97-5.5,7.1-12.06,6.78-18.99-.26-5.83-3.11-11.93-8.48-14.69-4.78-2.45-11.16-1.88-15.45,1.32-5.4,4.02-5.1,11.74-4.66,17.78,.48,6.71,2.12,13.32,4.76,19.51,5.3,12.38,14.56,22.7,26.39,29.16,5.97,3.26,12.49,5.52,19.19,6.67,6.45,1.12,13.55,1.51,19.97,.06,2.84-.64,5.99-1.99,7.58-4.58,1.32-2.15,1.69-5.19-.03-7.24-2-2.38-5.89-2.24-8.68-1.87-3.35,.45-6.55,1.7-9.45,3.41-5.89,3.45-10.69,8.58-15.11,13.7-4.51,5.22-8.57,10.84-12.12,16.76-7.08,11.78-12.22,24.73-15.04,38.19-.7,3.35-1.25,6.72-1.67,10.11-.13,1.1,2.78,.56,2.89-.38,3.09-25.2,14.21-49.25,31.5-67.86,4.24-4.56,9.03-9.25,14.97-11.47,2.6-.97,6.46-1.85,9.02-.33,2.41,1.43,2.35,4.8,1.03,6.96-1.57,2.59-4.77,3.26-7.56,3.58-3.06,.35-6.17,.37-9.25,.19-6.36-.39-12.66-1.86-18.57-4.25-11.54-4.67-21.36-12.86-27.94-23.43s-10.14-23.35-8.99-35.61c.28-2.99,1.1-6.11,3.46-8.14,1.79-1.54,4.12-2.2,6.46-2.14,5.69,.15,9.99,4.53,11.78,9.67,4.21,12.07-4.4,24.29-12.79,32.23-15.87,15.01-39.33,21.29-60.57,16.18-2.68-.64-5.3-1.48-7.86-2.49-.64-.25-1.48-.07-2.05,.28-.34,.21-.92,.83-.27,1.08h0Z"></path></g><g class="cls-3"><path class="cls-6" d="M146.34,172.77c-5.93-17.77-26.33-23.67-42.84-26.39-10.41-1.71-21.1-2.9-30.85-7.18-8.54-3.75-15.53-10.19-20.19-18.25-5.06-8.75-7.18-19.15-5.57-29.15,.23-1.42-2.73-1.03-2.93,.24-2.86,17.75,5.85,36.73,21.23,46.09,17.54,10.67,39.29,7.83,57.82,15.74,8.93,3.81,17.26,10.16,20.44,19.67,.43,1.28,3.32,.48,2.9-.78h0Z"></path></g><g><g><path class="cls-6" d="M62.36,80.54c.14-1.9-1.22-3.91-3.11-4.13s-3.79,1.81-3.14,3.6c-.9-1.38-2.04-2.65-3.51-3.39s-3.3-.9-4.75-.12c-2.09,1.12-2.83,4.05-1.78,6.17,1.05,2.12,3.58,3.31,5.93,3.06,2.36-.25,4.47-1.77,5.75-3.76,1.02,.79,2.32,1.37,3.58,1.1,1.26-.27,2.3-1.66,1.83-2.86"></path><path class="cls-6" d="M63.81,80.15c.1-2.49-1.88-4.51-4.38-4.3-2.2,.18-5.61,1.79-4.77,4.55,.97-.26,1.93-.52,2.9-.78-1.43-2.16-3.42-3.98-6.12-4.18-2.4-.17-5.36,.72-6.62,2.92-1.09,1.9-.83,4.28,.62,5.89,1.63,1.82,4.19,2.31,6.52,1.94,2.92-.47,5.56-2.01,7.2-4.49-.93,.25-1.86,.5-2.79,.75,1.7,1.27,3.65,1.54,5.66,.85,1.44-.49,3.12-1.75,2.57-3.48-.19-.61-3.07,.23-2.9,.78,.13,.4,.15,.76,.01,1.16-.03,.09-.66,1-.68,.95l.4-.14-.27-.05c-.23-.1-.51-.14-.74-.24-.47-.2-.9-.49-1.31-.79-.57-.43-2.44,.21-2.79,.75-1.04,1.57-2.68,3.23-4.71,2.91s-3.99-1.8-4.45-3.91c-.2-.94-.13-1.93,.23-2.82,.17-.43,.41-.87,.72-1.22,.15-.17,.32-.34,.5-.47,.01-.01,.47-.24,.25-.18,1.06-.27,2.5,.52,3.32,1.12,1.02,.73,1.81,1.69,2.5,2.73,.36,.54,3.07-.21,2.9-.78-.23-.74-.11-1.44,.32-2.08,.08-.11,.74-.68,.74-.73,.02,.27-.96-.11-.23,.19,.19,.08,.37,.12,.56,.22,1.35,.69,2.03,2.24,1.97,3.71-.01,.36,2.86,.03,2.9-.78h0Z"></path></g><g><path class="cls-1" d="M54.61,78.84c2.6-4.47,1.13-10.84-3.17-13.72-1.02-.68-2.33-1.18-3.45-.69-1.86,.82-1.72,3.52-1.06,5.44,.74,2.14,1.77,4.24,3.4,5.81,1.63,1.57,3.95,2.55,6.18,2.17,2.78-.48,4.84-2.89,6.07-5.43,.51-1.05,.66-2.7-.46-3-.32-.08-.66-.01-.98,.08-2.91,.82-5.28,3.33-5.93,6.28"></path><path class="cls-6" d="M55.99,78.99c2.14-3.78,1.7-8.71-.84-12.19-1.35-1.85-3.51-3.6-5.9-3.59-2.54,.02-4.29,1.96-4.22,4.43,.06,2.34,1.11,4.71,2.35,6.65,1.43,2.24,3.6,3.96,6.23,4.5,2.59,.53,5.26-.29,7.23-2.02,.92-.81,1.69-1.75,2.35-2.79,.58-.91,1.15-1.92,1.24-3.01,.11-1.19-.39-2.25-1.62-2.54-1.44-.33-3.09,.41-4.31,1.13-2.38,1.39-4.1,3.64-4.73,6.33-.17,.7,.83,.95,1.33,.91,.68-.05,1.44-.44,1.6-1.15,.4-1.69,1.39-3.21,2.79-4.24,.27-.2,.54-.37,.83-.52,.24-.12,.92-.26,1.1-.44,.16-.16,.06,.13-.09-.08,.03,.05,.1,.1,.11,.17,.05,.41,.09,.72,0,1.14-.35,1.46-1.55,3.02-2.66,3.99-1.25,1.09-2.75,1.51-4.36,1.01-1.88-.59-3.32-2-4.37-3.63-.96-1.5-1.77-3.32-2.02-5.1-.09-.63-.11-1.34,.09-1.95,.08-.23,.19-.47,.37-.64,.16-.15,.31-.09,.68,.01,1.55,.44,2.85,1.9,3.69,3.21,1.92,3,2.15,7.01,.39,10.12-.35,.63,.31,1.11,.87,1.17,.71,.08,1.53-.24,1.89-.87h0Z"></path></g></g></g><g id="cart"><g class="cls-4"><path class="cls-6" d="M154.01,466.62c21.32,2.2,42.66,4.4,63.83,4.54,10.79,.07,21.72-.44,31.43-5.47,6.36-3.3,12.05-8.46,18.41-11.77,6.59-3.43,13.78-4.79,20.97-5.81,15.65-2.22,31.55-2.89,47.56-2,15.06,.84,31.13,2.78,43.16-8.13,1.12-1.02,1.95-2.63,2.08-4.62,.35-5.64-4.89-8.59-8.78-9.41-38.78-8.16-78.68-10.96-118.2-7.73-36.43,2.98-75.28,9.6-108.11,25.63-4.78,2.34-9.67,4.74-13.4,8.54-14.11,14.37,13.63,15.47,21.05,16.23Z"></path><g><path class="cls-6" d="M153.62,464.13c.81,.12,.56-.33,.69-.39-1.38-.04-.66,.5-.69,.39Z"></path><path class="cls-6" d="M140.74,463.5l.25-.13c-.64,.02-1.28,.02-1.91,.01,.55,.05,1.11,.08,1.66,.11Z"></path><path class="cls-6" d="M130.98,459.01c-.11,.54,.54,1.26,1.49,1.78,.95,.54,2.14,.94,3.06,1.4l.26,.27,1.06-.25c-1.2-.32-2.56-.73-3.68-1.29-1.13-.55-1.96-1.3-2.19-1.91Z"></path><path class="cls-6" d="M132.89,455.28c-.2,.06-.1-.2-.09-.23,.04-.04-.15,.21-.5,1.14,.07-.08,.1-.1,.15-.14,.1-.17,.14-.38,.44-.77Z"></path><path class="cls-6" d="M132.45,456.05c-.38,.79,.47-.41,0,0h0Z"></path><path class="cls-6" d="M135.29,452.11c-.31,.4-.56,.84-.84,1.25,.33-.13,1.25-1.05,1-.61,.97-1.14,.66-1.05-.16-.64Z"></path><path class="cls-6" d="M135.99,450.75l-.52,.61c.15-.04,.32-.16,.52-.61Z"></path><path class="cls-6" d="M134.45,452.7c.31-.47,.66-.91,1.02-1.34-.24,.06-.42-.08-.5,.59-.05-.24-.16,.12-.52,.75Z"></path><path class="cls-6" d="M133.73,453.33c-.62,.54-1.38,1.34-.64,0-.21,.29-.39,.54-.53,.76-.13,.22-.2,.4-.26,.54-.11,.28-.12,.42-.04,.41,.17-.02,.6-.59,1.47-1.72Z"></path><path class="cls-6" d="M130.11,458.94c.05,.36,.23,.69,.39,1.05,.29,.2,.56,.39,.86,.55-.13-.05-.25-.2-.4-.37-.16-.16-.31-.36-.4-.57-.26-.38-.34-.74-.44-.66Z"></path><path class="cls-6" d="M143.43,446.93c.02-.18-.67-.1-.87-.21l-.96,.73c.58-.21,1.65-.68,1.83-.52Z"></path><path class="cls-6" d="M142.56,446.72l1.48-1.08c-1.46,.72-1.65,.98-1.48,1.08Z"></path><path class="cls-6" d="M135.69,449.97c-.62,.77-1.19,1.53-1.68,2.37,.61-.96,1.32-1.86,2.1-2.73l-.42,.36Z"></path><polygon class="cls-6" points="149.72 443.86 148.92 444.62 150.38 443.36 149.72 443.86"></polygon><path class="cls-6" d="M153.91,441.84c-.59,.58,1.17,.03,.49,.52,1.14-.54,2.04-1.19,2.84-1.77-.9,.52-1.93,.92-3.34,1.25Z"></path><path class="cls-6" d="M158.63,439.65c-.45,.27-.9,.59-1.38,.94,.48-.28,.94-.58,1.38-.94Z"></path><path class="cls-6" d="M146.88,444.31c.17,.02,.53,.1,1.51-.24l-.84-.08c-.2,.1-.43,.2-.66,.31Z"></path><path class="cls-6" d="M147.51,443.99h.03c.72-.32,1.22-.54,1.43-.64-.18,.08-.62,.27-1.46,.64Z"></path><path class="cls-6" d="M146.72,444.39c.06-.03,.11-.05,.17-.08-.08,0-.13,0-.17,.08Z"></path><path class="cls-6" d="M139.69,447.57c.75-.76,2.59-2.08,.53-1.32-.51,.64,.64,.19-.53,1.32Z"></path><path class="cls-6" d="M145.67,444.31l-1.8,.79c.09,.08,.47,.07,.05,.42l1.74-1.21Z"></path><polygon class="cls-6" points="146.47 443.76 145.67 444.31 146.34 444.02 146.47 443.76"></polygon><path class="cls-6" d="M155.39,440.59c.71-.5,1.56-.88,2.51-1.31-1.07,.36-2.15,.77-3.17,1.2-.09,.18-.44,.59,.66,.11Z"></path><path class="cls-6" d="M151.53,442.18c.05-.03,.11-.07,.16-.1-.12,.02-.21,.04-.16,.1Z"></path><path class="cls-6" d="M167.52,435.56c-.06,0-.12-.01-.18-.02,0,.03,0,.05-.01,.08l.19-.06Z"></path><path class="cls-6" d="M154.52,440.48c-.81,.25-1.24,.55-1.61,.88,.55-.31,1.16-.59,1.82-.88,.04-.08,.04-.12-.21,0Z"></path><path class="cls-6" d="M161.22,438.39c-.44,.08-.94,.18-1.45,.31,.45-.04,1.35-.15,1.45-.31Z"></path><path class="cls-6" d="M152,442.06s-.07,.04-.11,.07c.29-.03,.24-.06,.11-.07Z"></path><path class="cls-6" d="M152,442.06c.37-.24,.63-.48,.91-.71-.45,.25-.86,.49-1.21,.72,.11-.02,.22-.02,.31-.01Z"></path><path class="cls-6" d="M169.59,431.93c-.02,.43-2.01,1.51-3.99,1.74-1.68,.96-.07,1.7,1.74,1.86,0-.18-.06-.33,1.7-1.19-.71,.02-4.26,.95-2.83,.07,2.38-1.04,2.05-.57,3.31-.78-1.17-.11,2.88-1.76,2.12-2.27l-2.07,.99c-.08-.09,.65-.53,.01-.42Z"></path><path class="cls-6" d="M163.86,436.79l-.73,.33c.88-.26,1.54-.35,2.77-.49,1.18-.65,1.4-.86,1.43-1.02-1.25,.4-2.47,.88-3.71,1.32l.23-.15Z"></path><path class="cls-6" d="M159.78,438.41c.42-.62,2.15-1.48,.88-1.5-2.19,.87-1.4,.95-2.63,1.65,3.45-1.58-.91,.65,1.7-.19-.66,.36-1.26,.64-1.84,.9,.65-.22,1.28-.41,1.87-.58-.04,0-.06,0-.09,0h-.02s0,0,0,0c-.17,.01-.23,0-.05-.04,0,0,.05-.03,.07-.04,0-.07,.05-.14,.1-.22,1.06-.31,.2,.04-.1,.22,0,.02-.02,.05-.02,.08,0,0,0,0,.02,0l3.45-1.58c-.77,.23-1.7,.6-3.35,1.29Z"></path><path class="cls-6" d="M141.53,444.45c.12-.02,.13,0,.16,.03,.19-.16,.26-.24-.16-.03Z"></path><path class="cls-6" d="M143.04,443.95c-.22,.18-.35,.44-1.16,.82-.75,.26-.1-.18-.2-.29-.43,.36-1.51,1.18,.07,.55l.21-.18c1.41-.6,3.42-.98,3.21-.81-.57-.15-1.05-.22-2.13-.09Z"></path><path class="cls-6" d="M151.43,440.86c.93-.51,1.86-1.03,2.81-1.49-.54,.1-1.1,.18-1.64,.3l.17,.17c-1.67,.68-1.21,.77-1.34,1.02Z"></path><polygon class="cls-6" points="167.94 435.64 167.69 436.21 169.2 435 167.94 435.64"></polygon><polygon class="cls-6" points="171.79 434.24 171.78 434.67 172.72 434.08 171.79 434.24"></polygon><path class="cls-6" d="M371.19,445.89c-.29,.16-.58,.35-.89,.49,.44-.18,.7-.37,.89-.49Z"></path><path class="cls-6" d="M377.6,442.41l.04-.26c-.22,.28-.29,.42-.04,.26Z"></path><path class="cls-6" d="M271.26,417.7c1.37,.32,2.9,.84,2.72,.4l-.43-.42c-.94,.11-1.67,.09-2.29,.01Z"></path><path class="cls-6" d="M340.78,418.39c-.12-.06-.25-.12-.38-.18-.35,.11-.67,.2-.97,.29,.41-.03,.87-.07,1.35-.11Z"></path><path class="cls-6" d="M341.97,416.74l1.76,.51c-.39-.15-.95-.32-1.76-.51Z"></path><path class="cls-6" d="M333.48,448.8l-1.1,.4c1.69,.06,.96-.18,1.1-.4Z"></path><path class="cls-6" d="M212.57,423.88c1.18-.05,2.11-.12,2.92-.24-1.43-.02-2.62-.2-2.92,.24Z"></path><path class="cls-6" d="M371.69,440.59c-.43,.34-.6,.5-.55,.58,.47-.3,.69-.55,.55-.58Z"></path><path class="cls-6" d="M218.83,423.09c-.21,0-.41,0-.63,0-.83,.21-1.67,.41-2.71,.56,1.06,.01,2.25-.07,3.33-.56Z"></path><path class="cls-6" d="M204.29,473.29c-.1-.02-.22-.04-.3-.07-.03,.06,.1,.07,.3,.07Z"></path><path class="cls-6" d="M165.53,465.88c.39,.01,1.01,.07,1.6,.13-.28-.06-.77-.1-1.6-.13Z"></path><path class="cls-6" d="M187.67,429.7c-.84,.24-.12,.08,0,0h0Z"></path><path class="cls-6" d="M183.12,429.17c.17-.1,.29-.2,.28-.3-.04,.12-.14,.22-.28,.3Z"></path><path class="cls-6" d="M227.07,419.12s.05,0,.08,0c-.27-.05-.22-.04-.08,0Z"></path><path class="cls-6" d="M186.35,429.83c.33-.03,.71-.08,1.11-.15-.18,.01-.52,.06-1.11,.15Z"></path><path class="cls-6" d="M186.57,429.99c-.3,.06-.53,.1-.75,.16-.09,.1,.02,.11,.75-.16Z"></path><path class="cls-6" d="M188.84,429.37c-.48,.13-.94,.23-1.38,.31,.17-.01,.25,0,.21,.02,.25-.07,.59-.17,1.17-.32Z"></path><path class="cls-6" d="M272.27,453.29c-.06,0-.12,.02-.19,.03-.73,.49-.4,.31,.19-.03Z"></path><path class="cls-6" d="M294.09,412.96s-.06,.01-.1,.02c.04,0,.09,.01,.13,.02l-.03-.04Z"></path><path class="cls-6" d="M297.27,412.71c-1.37,.51-2.13,.43-3.15,.29l1.02,1.27,2.13-1.57Z"></path><path class="cls-6" d="M354.49,449.23c.77,.09,1.54,.22,2.32,.28-2.75,.79-4.8,.61-2.6,1.09,.15-.68,2.39-.78,4.65-1.03,1.13-.13,2.26-.32,3.12-.52,.85-.24,1.42-.55,1.44-.89h1.58c-.44,.06-.49,.15-.93,.22,.78,.03,1.29-.07,1.68-.25,.39-.16,.66-.37,.94-.6,.28-.23,.59-.48,1.05-.73,.46-.28,1.08-.56,2.01-.83,1.31-.34,2.24-.62,1.45-.07,.88-.54,1.79-.97,2.61-1.59,.79-.4,.71-.09-.08,.31l2.01-1.17c.64-.43,1.27-.89,1.9-1.34v.05c.45-.51,1.38-1.74,1.84-2.3,1.02-.59-.36,.48-.02,.42l.87-.93c.3-.31,.66-.77,.91-1.19,.5-.39,.49-.04,.08,.65-.49,.77-1.18,1.33-1.88,1.9,1.35-.28,1.71-.54,2.45-1.63,.32-.51,.65-1.12,1.03-1.98,.37-.86,.81-1.97,1.12-3.55-.01,1-.15,2.03-.48,3.04,.73-.82,1.13-1.97,1.25-3.29,.15-1.31,.04-2.92-.46-4.8,.11,.46,.36,2.4,.1,3.64-.3,1.23-.64,1.76-.8,.12,.02-.92-.08-2.29-1.15-3.8,.44-.21-.49-1.88-2.12-3.29l.54-.37c-.96-.75-1.48-.93-1.9-1.05-.41-.12-.74-.13-1.37-.33-1.05-.6-1.67-.99-2.08-1.34-.41-.35-.6-.65-.83-.93-1.96-.58-1.32-.18-.79,.17,.27,.18,.49,.38,.37,.45-.06,.04-.2,.03-.47,0-.26-.02-.7-.11-1.16-.18-2.67-.78-4.63-.93-7.96-1.18-1.87-.57,.41-.32-.24-.63l-1.79,.19c-.41-.09-.25-.22-.17-.28-1.46-.07-.23,.61-2.5,.37-.72,.56-4.43-1.81-7.35-1.48-.66-.29,.39-.33,.22-.61-3.9-.11-3.34-.13-6.58,.1l-2.61-.81c1.9,.76-.69,.95-2.95,1.14,.67,.32,1.23,.6,1.62,.75l-3.55-.11c-.41-.16-.03-.33,.58-.52-.25,.03-.48,.05-.66,.07-1.22-.4-.53-.68,.42-.92,.41,.19,.82,.37,1.21,.56,.92-.27,1.79-.59,1.66-.99-.24,.04-.69,.05-1.18,.02,.24-.08,.4-.15,.3-.23-.11-.08-.5,.01-1.09,.1l-.71-.81-.23,.26c-1.52-.35-3.03-.7-4.56-1.01-3.39,.34-6.36,1.06-11.62,.89,1.34-.4,.36-.82,.48-1.44,1.37,.8,4.09,.08,6.8,.52-1.41-.23-1.07-.49-.7-.55l-4.91,.13c.16-.49-1-.47-2.25-.8,.87,1.07-3.68,.36-5.68,.53-.1-.34,.4-.65,2.81-.39-2.61-.95-3.53,.9-6.09,.09,.59,.02,.9,.1,1.15-.05-1.39,.2-4.74-.22-3.94-.47l.59,.03c-3.91-.39-11.93-.56-12.54,.27-.04-.11,.54-1.01,.79-1.17l-7.04,2.71c.63-.72-1.72-2.51,1.54-2.85-.93-.12-2.09-.29-4.06-.02,.64,.11,1.58,1.06,.71,1.12-2.38-.82-1.65-.44-4.6-1.14,.96,.16-.11,1.3-1.61,1.26,.23-.17-.13-1.13,.42-1.25-1.25,.37-2.5,.78-3.74,1.17,.93-.22,.15-.96-.69-1.26,.39,.22-3.25,.02-4.25,.17l1.6,.23c-4.25-.06-4.14,1.71-8.33,1.79,.5-.24,1.2-1.49-.95-1.53-.96,.64-4.19,2.97-7.84,3.66l-.73-.28-2.8,.58c.85-.5,2.48-1.29,4.23-2.07,1.76-.77,3.65-1.49,4.99-1.92-1.6-.18-.46-.36-2.84-.21-.86-.26,1.27-.54,1.97-.59-1.85,.04-3.7,.05-5.55,.13,.29,.65-4.18,.98-3.93,1.52l5.95-1.12c.28,.64-3.34,2.15-7.25,2.31-1.02-.19,.65-1.25,.55-1.46-.49,.25-3.67,.76-4.04,.62l1.63-.5c-2.2-.06-3.47,1.19-6.14,.8-.9,.05-2.77-.59-2.89-.18,1.55,.61,2.06,2.95,1.15,3.62-.32-.02-4.78-.27-5.84-.51-1.54-.43,2.06-1.68,.75-2.05-.03,.19-.83,.51-1.16,.62-.96-.05,.33-.61-1.71-.29-.26,.72-4.18,.42-.9,.68-1.98,.43-2.15,.1-4.49,.44,.8,.34-1.92,1.76-3.89,2.22,.09-.19-.39-.35-.62-.43-4.09,.55-6.34,.52-10.13,1.17-.38-.1-2.24,0-1.51-.42-.53,.21-.99,.52-2.16,.73-2.37-.2,2.6-.53,.75-.94-.08,.4-2.94,1.07-4.56,1.63,.62,.51,3.86-.61,5.5-1.11,.15,.82-2.61,2.18-6.47,3.32-3.09,.79-1.46-.28-1.98-.06-2.95,.52-4.12,1.15-5.18,1.69-1.06,.53-2,.98-4.48,1.26-2.04-.08-.33-1.02-.84-1.3,2.49-.8,3.97-.56,5.69-.93l-2.18,.19c.77-.34,2.45-.83,3.4-.87-1.73-.15-9.94,2.01-14.52,2.81-.75,.38-2.08,.91-1.37,.96l1.4-.44c1.41,.09-2.51,1.27-.67,1-1.83,.76-3.8,1.84-6.51,2.36l-.67-.45c.11,.16,1.83-.14,2.53-.53-1.02,.59-4.31,.33-5.27,1.51,.66-.06,1.31-.12,1.97-.15-1.8,.84-3.9,2.22-6.28,2.76,1.24,.24,.52-.23,2.37-.08-1.69-.4,5.94-1.82,3.37-1.99,1.94,.3,3.05-.51,5.47-.47-.12-.18-.89-.15,1.09-.61,.07-.08,.26-.22,.39-.29,.06,0,.08-.01,.14-.02-.04,0-.07,0-.12,0,.08-.05,.08-.06-.04,0-.49,.04-.9,.05-1.08-.02,.85-.74,4.01-1.51,5.02-2.03,1.2-.21-.44,.35,.26,.4l1.5-.76c.26,.38,3.31-.02,.59,.89l2.5-.57c1.53-.09,3.57-.47,4.78-.94,1.21-.15,2.89-1.11,1.93-.55l3.89-1.09,.06,.1c3.91-.7,7.92-2.27,12.55-2.19,1.3-.34,2.65-.69,4.89-.89l.49,.32c1.68-.4,5.17-.36,5.85-.84,.99,.4,3.06,.18,5.27-.15,2.21-.31,4.56-.73,6.07-.82l.06-.52c2.08-.19,4.05-.53,6.61-.99l-.2-.43c2.19-.56,5.76-.22,9.27-.52-.23,.19-1.12,.21-1.76,.15,2.14,.35,4.34,0,6.5-.37,2.16-.36,4.27-.71,6.2-.45,.94-.21,1.64-.2,2.31-.11-.09,0-.17,.02-.24,.03,.1,0,.24,0,.39,0,.42,.06,.86,.14,1.33,.19-.4-.1-.79-.17-1.12-.2,.73-.03,1.85-.13,2.94-.28l.48,.47c.09,0,.16-.01,.25-.02,1.08,.14,.85-.26,.27-.6,.55-.1,1.05-.21,1.44-.34,.89,.73,2.86-.33,4.07,.48,.73-.41,5.49-.4,6.07-1.22,.04,.11,.36,.16-.23,.17,1.22,.1,2.44,.2,3.54-.04l.51,.61c.89-.27,1.78-.55,2.67-.81,1.62,.41,2.28,.64,.67,1.08,3.89-.64,3.15-.21,6.47-.85l-.17,.39c1.18,.03,3.09-.42,3.79-.07,2.61,.79,13.05,.76,19.74,2.07-1.2-1.28,3.09,.81,3.44-.06,.37,.31,1.29,.55,.18,.69,3.47,.04,5.11,.99,7.56,.48,.36,.32-.78,.32-.45,.52,.28-.03,1.12-.12,1.46,.09,.33,.2-.53,.17-1.09,.23,3.51,.34,3.96-.41,4.32-1.18,1.73,.6,2.62,.67,3.97,.31,.58,.34,1.58,.74-.61,.55,1.23,.16,7.41,1.46,7.63,.83,.36,.22,1.7,.29,2.03,.28,2.73,.49,2.96,.59,5.66,.97l-.73-.23c1.19-.59,2.26,.2,4.44,.51l-.08,.07c4.85,1.47,2.2,.09,6.95,1.69l-.17-.52c.33-.46,1.38-.09,2.71,.41,.67,.25,1.4,.54,2.15,.77,.76,.23,1.39,.43,2.06,.57-.27-.2-.56-.37-.84-.56,.77,.02,1.67,.72,2.35,1.54,.7,.82,1.13,1.74,1.53,2.18,.14,.24-.41-.17-.74-.34,1.02,1.21,1.04,1.2,1.27,1.04,.1-.08,.19-.2,.37-.19,.19,0,.44,.16,.79,.64-.05,.28-.3,.26-.45,.36-.18,.1-.18,.27,.02,.89,0,.33,.54,1.14,.64,2.43,.05,.61-.04,1.27-.3,1.81-.13,.27-.29,.51-.48,.69-.19,.19-.36,.28-.71,.46,.15-.04,.32-.09,.43-.1,.1,0,.19,0,.24,.03,.1,.07,.16,.2-.34,.73-.78,.7-2,1.44-3.25,2.03-1.19,.69-2.43,1.17-3.05,2.02-.26,.07-.39,.03-.43-.02-1.33,.88-4.65,2.29-5.53,2.86-.94-.59-3.29,.19-5.6,.67-1.14,.28-2.27,.47-3.1,.53-.83,.07-1.38-.05-1.39-.44-1.68,.11-3.37,.16-5.06,.18l.13-.16c-3.25-.16-4.42,.13-5.59,.45-.75-.14-.19-.26-.13-.33-4.78-.56-5.28-.56-9.38-.02l-.4-.52c-1.11,.21-7.01-1.1-11.81-.52,.05-.06,.15-.15,.53-.22-2.69,.27-5.91-.02-8.71-.14-2.8-.1-5.18-.02-6.11,.94l-3.51,.67c4.58-.16-.63,.82,1.27,1-1.78,.23-4.67-.21-2.47-.46l.35,.06c.74-1.02-5.69,.12-5.63-.5-4.49,.46-8.92,.89-13.29,1.44-4.37,.56-8.74,1.31-12.89,2.74,.4,.12,.79,.24,1.18,.37-.96,.29-1.91,.62-2.85,.98-.8,.14-1.22-.15,.83-.9-1.24,0-3.26,1.7-3.23,1.88-1.98,.78-1.7,.43-1.07-.09,.63-.51,1.65-1.11,1.04-.85-.54,.26-1.07,.54-1.6,.83l.4-.1c-1.17,.92-1.14,1.24-3.39,2.53-1.47,.73-.95,.06-1.51,.38-.02-.05-.22,.05-.84,.52-1.06,.68-2.11,1.37-3.14,2.06l1.55-.37c-1.2,1.17-2.88,1.97-1.11,1.53-1.33,.29-4.16,2.26-6.9,3.99-2.73,1.76-5.47,3.13-6.23,3.24-1.86,1.25-3.97,1.98-6.62,2.59,.68-.06,1.26,.5-1.09,.96,.28-.75-.81-.64-2.22-.49-1.41,.16-3.18,.34-4.18-.03,.88,.22-.77,.46-2.32,.66-1.55,.2-2.99,.37-1.62,.76-2,0-.15-.49-1.67-.73-4.7,.74-10.46-.19-16.35-.17-.1,.17,.88,.47-.39,.69l-3.09-.99c-1.17,.04-1.11,.97-3.22,.27,.29,.16,.73,.4-.05,.43-11.51-1.38-23.69-.89-35.27-3.65,1.56,.5,.49,.43-.72,.32,.78,.16-.06,.43,.07,.68l-4.85-1.15c-.96,.57-5.27-.49-5.85,.08l1.57,.05c-2.15,.53,2.73,1.95,2.33,2.87,2.4-.61,5.99,1.87,9.92,1.03,.82,.27-.75,.24-.32,.5,1.01-.32,2.18-.29,4.32,.1l-.25,.08c6.09,.46,8.65,1.1,15.48,1.88l-.47-.51c1.47,.18,1.77,.34,2.45,.51,1.74-.59-4.13-.33-2.53-1.02,1.88,1.12,10.37,.71,11.64,1.85,2.27,.13-.64-.58,1.63-.46l.59,.32,.59-.36c1.48,.13,2.22,.53,2.27,.79-.36-.05-1.03,.02-1.42,.03,1.92,.44,5.46,.08,6.12,.21l-2.18-.25c6.21-.08,13.8,.47,19.86-.52l-.47-.2c2.3-.35,3.22-.39,4.21-.4,.99-.03,2.05-.01,4.57-.53l-.17,.09c.98-.41,2.29-.77,3.66-1.08-.6,.27,.02,.27,.6,.25,.58-.02,1.11-.03,.32,.34,2.44-.87,2.99-1.23,3.35-1.46,.35-.27,.48-.51,1.9-1.49l.85,.04c.92-.76,.95-.93,3.17-2.18-1.71,1.26,1.72-.27-.18,1.21,2.63-.9,4.22-2.2,5.48-3.21,1.27-1.03,2.22-1.83,3.55-2.04,1.4-2.22-4.08,2.14-3.09,1.18-1.13,.36,1.23-1.76,2.62-2.62,1.39-.92,3.08-.62,6.5-2.87-.35,.22-.33,.3-.67,.51,1.42-.61,2.35-1.91,4.19-2.41,.63-1.04,2.16-1.02,2.11-1.86-1.12,.56-2.2,1.17-3.26,1.83,1.73-1.17,3.17-2.96,6.7-3.7-.21,.24-1.13,.78-1.75,1.16,1.04-.15,1.8-.84,2.89-.93-.03,.42-1.09,.8-2.37,1.31-1.27,.5-2.76,1.15-3.61,1.93,1.07-.21,3.63-2.24,2.92-1.01,1.1-1.64,3.73-1.26,6.16-2.74l-.06,.51c.4-.18,1.23-.62,2.02-.78-.43,.3-.85,.62-1.27,.93,2.05-1.04,4.29-.48,6.36-1.12-4.45,.81-1.1-.39-3.05-.38,2.7-.84,3.57-.64,4.5-.42,.94,.22,1.96,.48,5.09-.05-.84,.18-3.23,.15-1.93-.25,1.21-.07,2.81-.09,3.58,.07,4.15-.6-.7-.41,1.04-.91,1.49,.42,2.02-.47,3.84-.84l.06,.48c4.8-.15,1.17-1.13,5.51-1.13l-1.77,.82,2.23-.35-.42,.58c2.41-.59,3.18-.53,5.58-.52-.57-.31,.26-.89,2.39-1.01,1.46,.23-.79,.48,2.22,.31-.67,.33-1.4,.72-2.72,.35-.13,.16-.65,.33-.78,.5,1.57,.24,3.91-.09,5-.13-.42-.01-.92-.01-1.18-.07,1.44-.27,2.89-.53,4.34-.77,.69,.17,.15,.32-.39,.47,.88-.06,1.49-.29,2.79-.35-.33,.4-.25,.8-2.08,1.01,1.38-.17,2.76-.32,4.14-.46,.28,.16,2.12,.48,1.58,.62,2.29,.25,5.65-.66,8.69-.22,.16-.07,.48-.13,1.13-.15,2.86,.23,5.38,.89,8.87,.54l1.94,.8c2.73-.04-2.63-1,1.91-1.07,3.23-.15,1.19,.63,2.32,.85,1.63-.33,4.41-1.03,7.45-.68-.99,.23-1.78,.13-2.71,.22Zm29.14-16.9c.04,.4,.19,1.01,.17,1.61,0,.6-.13,1.18-.34,1.44-.31-1.05,.04-1.65,.17-3.06Zm-47.59-15.48c.49-.1,1.22,.08,2.03,.36-.61-.04-1.28-.15-2.03-.36Zm-139.19,10.19s.04-.02,.06-.04c1.43-.14,.92-.1-.06,.04Zm-2.93,.46c-.27,.13-.24,.19-.1,.23,.17-.17,.82-.32,1.56-.46-.23-.08-.63-.07-1.46,.23Zm68.5,27.27l.57-.21c-1.05,.84-.8,.53-.57,.21Z"></path><path class="cls-6" d="M341.81,416.93c.17,.1,.21,.2,.24,.3,.26-.05,.28-.14-.24-.3Z"></path><path class="cls-6" d="M333.68,448.73h-.1c-.06,.02-.09,.04-.1,.07l.2-.07Z"></path><path class="cls-6" d="M238.64,415.77c.62,0,.97,.05,1.21,.11,.02-.12-.27-.19-1.21-.11Z"></path><path class="cls-6" d="M179.06,432.35c.58-.24,1.18-.43,1.77-.65-.87,.28-1.22,.25-1.68,.32,.07,.1,.46,.14-.1,.33Z"></path><path class="cls-6" d="M162.54,434.83c-.24,.16-.55,.22-.78,.37l.15,.18c1.1-.44,1.81-.9,.63-.55Z"></path><path class="cls-6" d="M176.92,431.34c-.26-.34-1.36,.15-2.6,.62,.08-.03,.15-.05,.22-.07-.2,.66,1.09,.05,2.38-.55Z"></path><path class="cls-6" d="M174.03,432.06c-.38,.14-.78,.28-1.17,.38-.08,.26,.49-.1,1.17-.38Z"></path><path class="cls-6" d="M190.36,428.66c-.63,.06-.25,.6-.64,.53-.55,.68,3.9-1.65,.64-.53Z"></path><polygon class="cls-6" points="175.49 430.39 176.1 430.72 176.69 430.11 175.49 430.39"></polygon><path class="cls-6" d="M185.71,427.77l-2.09,.44c.05,.07-.19,.19-.5,.32,1.27-.34,2.68-.65,2.59-.77Z"></path><path class="cls-6" d="M183.11,428.54c-.66,.18-1.28,.37-1.63,.55,.35-.11,1.11-.34,1.63-.55Z"></path><path class="cls-6" d="M178.23,429.37l.63-.08,1.46-.38c-.7,.15-1.4,.29-2.09,.46Z"></path><path class="cls-6" d="M208.06,422.78l2.26-.57c.2-.21-.44-.2-1.28,.03-.53,.22-1.36,.44-.98,.54Z"></path><path class="cls-6" d="M200.88,422.83c.64-.03,.7,.07,1.09,.16l-.06-.62-1.03,.46Z"></path><path class="cls-6" d="M207.52,421.34c.2-.21,3.24-1.11,.34-.53-.2,.21-2.47,.78-.34,.53Z"></path><polygon class="cls-6" points="242.41 417.07 241.82 417.14 242.01 418.14 242.41 417.07"></polygon><path class="cls-6" d="M273.19,412.44c-2.79-.15-.64,.65-3.15,.43-.64,.26,2.06,.18,1.4,.41,1.66-.31,2.55-.2,1.76-.84Z"></path><path class="cls-6" d="M271.43,413.28c-.27,.05-.55,.11-.85,.18,.48-.08,.71-.14,.85-.18Z"></path><polygon class="cls-6" points="159.13 464.68 157.38 464.29 158.49 464.75 159.13 464.68"></polygon><path class="cls-6" d="M155.66,465.09l-.35-.69-1.12,.47c.4,.01,1.18,.04,1.47,.21Z"></path><path class="cls-6" d="M382.39,425.71l-.24-.04c.12,.39,.48,.83,1.05,1.85-.21-.63-.49-1.23-.8-1.81Z"></path><polygon class="cls-6" points="369.16 447.32 369.59 447.19 368.61 446.9 369.16 447.32"></polygon><path class="cls-6" d="M348.12,450.49c.85,.04,1.85-.05,2.7-.03-1.86,.08-2.91-.71-2.7,.03Z"></path></g></g><g><path class="cls-6" d="M331.02,376.03c4.04,1.5,6.41,5.67,7.42,9.75,2.51,10.1-1.17,20.51-1.77,30.85-.19,3.25,1.06,7.64,4.4,7.52,1.96-.07,3.36-1.83,4.28-3.51,3.53-6.49,4.11-14.21,3.04-21.51-1.07-7.31-3.69-14.32-6.29-21.27-.5-1.33-2.23-2.88-3.03-1.72"></path><path class="cls-6" d="M329.28,376.7c3.21,1.27,5.24,4.62,6.27,7.76,1.27,3.88,1.43,8.08,1.16,12.12-.29,4.27-1.06,8.48-1.69,12.71-.52,3.52-1.42,7.52-.46,11.03,.86,3.17,3.11,4.78,6.42,4.7,1.96-.05,3.78-.6,5.2-1.99,1.27-1.24,2.06-2.96,2.74-4.57,3.19-7.53,2.95-15.96,1.17-23.81-1.08-4.77-2.7-9.4-4.39-13.98-.66-1.78-1.11-4.03-2.83-5.11-1.65-1.04-4.82-1.13-6.19,.42-.63,.71,1.5,1,1.78,1.02,.9,.06,2.39,.06,3.06-.7-2.15,2.43-4.17-.91-2.7,.48,.24,.23,.46,.52,.62,.8,.46,.78,.7,1.72,1.02,2.57,.72,1.93,1.42,3.86,2.08,5.8,1.21,3.58,2.28,7.21,2.99,10.92,1.31,6.87,1.38,14.29-1.27,20.87-.6,1.48-1.29,3.02-2.29,4.28-.4,.5-.92,.81-1.35,1.24l-.25,.11c1.41,.11,1.84,.09,1.31-.06-.24-.22-.54-.34-.77-.58-1.75-1.81-1.81-4.76-1.63-7.11,.55-7.43,2.55-14.71,2.57-22.18,.02-6.97-1.86-15.26-9.03-18.09-1.01-.4-2.54-.32-3.53,.1-.89,.38-.85,.89,.04,1.23h0Z"></path></g><g><path class="cls-6" d="M284.1,370.11c3.33,5.05,3.37,11.55,2.69,17.56-.68,6.01-1.98,12.09-.92,18.04,5.29-3.4,8.27-9.61,9.1-15.84s-.24-12.55-1.55-18.7"></path><path class="cls-6" d="M281.91,370.93c3.02,4.71,3.05,10.44,2.48,15.83-.67,6.43-2.01,12.76-.93,19.23,.3,1.76,2.71,2.38,4.05,1.5,5.04-3.32,8.2-8.87,9.44-14.69,1.56-7.28,.38-14.7-1.14-21.89-.57-2.68-5.44-2.46-4.8,.54,2.29,10.82,3.94,25.42-6.79,32.49,1.35,.5,2.7,1,4.05,1.5-1.08-6.44,.63-12.92,1.16-19.33,.48-5.74,.04-11.84-3.14-16.82-.69-1.08-2.06-1.7-3.32-1.23-1.11,.42-1.74,1.79-1.06,2.86h0Z"></path></g><g><path class="cls-2" d="M295.83,393.58c.18-4.06-4.99-7.1-9.23-6.28s-7.28,4.29-9.02,7.98c-2.58,5.49-2.96,11.89-1.04,17.72,1.05,3.18,3.08,6.45,6.46,7.51,3.35,1.05,6.97-.43,9.65-2.49,7.48-5.74,10.04-16.42,5.96-24.84-1.06-2.19-3.7-4.52-5.8-3.22"></path><path class="cls-2" d="M297.28,393.19c.04-3.12-2.67-5.33-5.44-6.19-3.28-1.02-6.91-.19-9.78,1.58-6.64,4.1-8.96,13.26-7.95,20.57,.5,3.61,1.74,7.53,4.5,10.07,2.8,2.59,6.71,2.66,10.18,1.51,6.81-2.25,11.7-8.79,12.89-15.73,.64-3.71,.31-7.58-1.11-11.08-1.46-3.59-4.71-6.27-8.59-4.19-.38,.2-.86,.51-.34,.81,.47,.27,1.61-.13,2.03-.36l-.29,.03c.23,.03,.45,.09,.66,.17,.35,.14,.69,.36,.99,.58,.63,.47,1.18,1.06,1.62,1.71,.78,1.15,1.27,2.53,1.65,3.85,.77,2.62,.98,5.41,.64,8.11-.7,5.52-3.7,10.95-8.41,14.03-2.89,1.89-6.21,2.12-8.93-.21-2.27-1.94-3.46-4.89-4.14-7.73-1.52-6.31-.51-13.74,3.54-18.96,1.94-2.5,4.69-4.58,8-3.74,2.78,.71,5.42,2.88,5.39,5.94,0,.52,2.89,.1,2.9-.78h0Z"></path></g><g><path class="cls-2" d="M364.78,412.42c-1.24-4.42-5.33-8.49-10.6-10.58-5.28-2.08-11.6-2.12-16.42-.1-8.45,3.54-10.86,11.99-11.69,19.67-.24,2.2-.4,4.45,.24,6.66,1.21,4.15,5.08,7.68,9.16,10.69,2.47,1.82,5.25,3.6,8.49,4.12,4.48,.71,8.66-1.18,11.81-3.46,9.14-6.61,13.26-17.17,10.66-27.32-.83-3.22-3.35-7.07-7.5-7.24"></path><path class="cls-2" d="M366.23,412.03c-3.03-10.18-15.77-13.88-25.17-11.85-4.56,.99-8.82,3.33-11.63,7.13-2.57,3.48-3.83,7.69-4.49,11.92-.38,2.43-.74,4.99-.44,7.45,.31,2.61,1.61,4.91,3.27,6.9,1.73,2.07,3.83,3.82,5.98,5.43,2.14,1.6,4.41,3.11,6.97,3.96,9.95,3.27,20.43-4.97,24.9-13.3,2.49-4.63,3.5-10.01,2.78-15.23-.66-4.79-3.15-9.85-8.56-10.21-.63-.04-1.56,.12-2.05,.55-.38,.34-.44,.68,.19,.72,4.19,.28,6.47,4.4,7.23,8.09,.86,4.11,.63,8.39-.68,12.39-1.33,4.08-3.7,7.76-6.78,10.75-3.28,3.19-7.66,6.21-12.46,5.6-4.73-.6-9.13-4.2-12.51-7.33-1.73-1.6-3.35-3.4-4.37-5.54-1.07-2.24-1.24-4.64-1.04-7.08,.6-7.52,2.85-16.26,10.19-19.9,8.94-4.43,22.81,.46,25.75,10.36,.22,.73,3.11-.07,2.9-.78h0Z"></path></g><g><path class="cls-6" d="M137.76,382.49c74.36-.78,148.72-2.84,223.01-6.19"></path><path class="cls-6" d="M139.45,383.08c29.11-.3,58.23-.8,87.33-1.5,29.07-.7,58.14-1.59,87.2-2.68,16.29-.61,32.58-1.28,48.87-2.02,1.04-.05-.63-.66-.79-.7-1.09-.3-2.26-.5-3.39-.45-28.95,1.3-57.91,2.42-86.88,3.33s-57.88,1.63-86.82,2.15c-16.3,.29-32.61,.52-48.91,.7-.85,0-.89,.27-.1,.57,1.05,.39,2.35,.62,3.48,.61h0Z"></path></g><g><path class="cls-6" d="M379.25,178.05c3.82-10.36,7.64-20.71,11.46-31.07,1.11-3,2.38-6.22,5.09-7.92,3.11-1.95,7.11-1.31,10.73-.71,11.96,1.99,24.11,2.81,36.22,2.44,2.96-.09,6.04-.28,8.61-1.75,2.57-1.47,4.45-4.59,3.53-7.41-1.2-3.67-5.88-4.58-9.73-4.88-17.61-1.35-35.22-2.69-52.83-4.04-2.49-.19-5.13-.35-7.33,.82-2.82,1.5-4.14,4.75-5.26,7.74-5.51,14.78-11.02,29.57-16.53,44.35-1.07,2.86-2.15,5.84-1.82,8.88,.33,3.03,2.55,6.09,5.59,6.29,3.23,.22,5.77-2.67,7.43-5.45"></path><path class="cls-6" d="M381.44,178.34c3.42-9.27,6.84-18.55,10.26-27.82,.74-2.01,1.42-4.07,2.3-6.03,.63-1.39,1.41-2.91,2.71-3.79,1.5-1.01,3.49-.99,5.22-.84,2.22,.2,4.41,.65,6.61,.98,9.83,1.47,19.78,2.14,29.72,2.07,4.52-.04,9.3,.1,13.46-1.93,3.38-1.65,6.48-5.6,5.65-9.56-.76-3.66-4.18-5.35-7.51-6.11-1.82-.42-3.69-.53-5.55-.67-2.49-.19-4.98-.38-7.48-.57-9.97-.76-19.94-1.52-29.91-2.28-4.98-.38-9.97-.86-14.96-1.13-4.49-.25-8.74,.72-11.53,4.53-2.53,3.46-3.68,7.95-5.16,11.91-1.74,4.67-3.48,9.34-5.22,14.01-1.74,4.67-3.48,9.34-5.22,14.01-1.71,4.58-3.66,9.15-5.05,13.84-1.19,4.02-1.3,8.44,1.74,11.68,3.01,3.21,7.68,2.62,10.92,.09,1.57-1.23,2.82-2.85,3.84-4.54,.56-.92,.72-2.16-.47-2.67-1.05-.45-2.71,.1-3.31,1.09-1.3,2.14-3.69,5.68-6.5,3.51-3.04-2.35-2.54-6.55-1.48-9.77,1.43-4.34,3.17-8.6,4.77-12.89s3.19-8.56,4.79-12.84c1.62-4.36,3.25-8.72,4.87-13.07,.81-2.18,1.62-4.36,2.44-6.54,.65-1.75,1.26-3.54,2.15-5.18,.66-1.21,1.54-2.36,2.88-2.83,1.65-.58,3.55-.33,5.25-.2,4.65,.35,9.3,.71,13.96,1.07,9.22,.7,18.44,1.41,27.66,2.11,4.3,.33,8.67,.45,12.94,1.05,2.42,.34,5.81,1.12,6.44,3.91,.77,3.39-2.84,5.19-5.58,5.58-4.26,.62-8.74,.44-13.03,.35-9.07-.19-18.09-1.09-27.04-2.55-3.94-.64-8.15-1.06-11.79,.96-3.29,1.83-5.1,5.19-6.39,8.59-3.22,8.45-6.26,16.96-9.39,25.44-.8,2.16-1.6,4.33-2.39,6.49-1.08,2.92,3.54,2.85,4.37,.58h0Z"></path></g><g><path class="cls-6" d="M299.76,163.63c2.89-6.16,5.79-12.32,8.68-18.47,.84-1.78,1.8-3.7,3.83-4.72,2.33-1.17,5.3-.81,8-.47,8.9,1.12,17.94,1.55,26.97,1.27,2.21-.07,4.5-.2,6.43-1.08s3.33-2.74,2.66-4.41c-.88-2.17-4.36-2.69-7.23-2.84-13.11-.71-26.23-1.43-39.34-2.14-1.85-.1-3.82-.18-5.47,.52-2.11,.9-3.11,2.83-3.96,4.61-4.18,8.79-8.35,17.58-12.53,26.38-.81,1.7-1.63,3.48-1.4,5.27,.23,1.8,1.87,3.6,4.13,3.71,2.41,.11,4.31-1.61,5.56-3.27"></path><path class="cls-6" d="M301.76,165.08c2.94-6.26,5.83-12.56,8.83-18.79,1.17-2.43,2.54-4.11,5.39-4.33,3.05-.23,6.23,.53,9.25,.82,6.87,.67,13.79,.93,20.7,.8,3.05-.06,6.48,.03,9.26-1.43,2.42-1.27,4.22-3.82,3.28-6.62s-3.67-4-6.28-4.53c-2.98-.61-6.14-.53-9.16-.69-6.97-.38-13.94-.76-20.91-1.14-3.49-.19-6.97-.38-10.46-.57-3-.16-6.48-.71-9.22,.86-2.45,1.41-3.57,3.88-4.74,6.33-1.49,3.13-2.97,6.26-4.46,9.39-1.7,3.58-3.4,7.15-5.1,10.73-.85,1.78-1.71,3.55-2.54,5.34-.77,1.67-1.47,3.38-1.47,5.25,0,3.28,2.58,6.3,5.78,6.93,3.43,.68,6.21-1.43,8.19-4,.77-1-.12-2.63-.98-3.24-1.03-.75-2.25-.66-3.03,.34-.97,1.26-3.13,3.26-4.85,2.13s.22-4.24,.87-5.61c2.65-5.59,5.31-11.18,7.96-16.76,1.31-2.76,2.62-5.51,3.93-8.27,.88-1.84,1.74-4.02,3.85-4.72,1.12-.37,2.39-.33,3.56-.29,1.64,.07,3.27,.18,4.91,.27,3.07,.17,6.14,.33,9.21,.5,6.22,.34,12.45,.68,18.67,1.02,2.85,.15,5.73,.19,8.56,.51,.94,.1,1.93,.23,2.82,.59,.18,.07,.68,.35,.6,.27,.52,.5,.06,0,.02,.13-.72,2.16-4.01,2.43-5.87,2.56-2.96,.2-5.95,.18-8.91,.15-6.11-.06-12.22-.47-18.29-1.2-2.96-.36-6.06-.88-8.98,.03-2.73,.85-4.39,3.07-5.58,5.54-3,6.23-5.89,12.53-8.83,18.79-.55,1.16-.04,2.51,.98,3.24,.85,.61,2.48,.82,3.03-.34h0Z"></path></g><g><path class="cls-1" d="M405.09,160.06c-118.25-2.86-230.55,1.52-348.43,11.39,24.94,68.32,53.16,135.45,84.52,201.08,70.04,.25,138.73-4.32,208.77-4.07,17.93-71.07,37.21-137.33,55.14-208.4"></path><path class="cls-6" d="M406.38,158.67c-45.59-1.1-91.21-1.14-136.81-.13-44.97,.99-89.91,2.99-134.8,5.85-25.63,1.63-51.24,3.54-76.83,5.68-.87,.07-4.05,1.12-3.55,2.47,9.74,26.67,19.98,53.17,30.7,79.46,10.73,26.29,21.95,52.39,33.65,78.26,6.57,14.52,13.29,28.97,20.16,43.36,.16,.33,.68,.32,.96,.32,27.13,.09,54.26-.54,81.37-1.33,27.15-.8,54.29-1.76,81.45-2.31,15.31-.31,30.63-.48,45.95-.43,1.17,0,3.27-.94,3.58-2.19,6.88-27.24,14.11-54.39,21.43-81.52,7.25-26.85,14.58-53.67,21.7-80.55,4.09-15.42,8.1-30.87,12.01-46.34,.25-.98-1.75-.48-2.1-.36-.88,.29-2.23,.95-2.48,1.95-6.88,27.24-14.11,54.39-21.43,81.52-7.25,26.85-14.58,53.67-21.7,80.55-4.09,15.42-8.1,30.87-12.01,46.34,1.19-.73,2.39-1.46,3.58-2.19-27.13-.09-54.26,.54-81.37,1.33-27.15,.8-54.29,1.76-81.45,2.31-15.31,.31-30.63,.48-45.95,.43l.96,.32c-12.24-25.62-24.01-51.47-35.29-77.54-11.28-26.06-22.07-52.33-32.37-78.8-5.78-14.85-11.4-29.77-16.87-44.74-1.18,.82-2.37,1.65-3.55,2.47,45.45-3.8,90.97-6.87,136.54-8.96,44.93-2.07,89.9-3.2,134.88-3.29,25.68-.05,51.35,.24,77.02,.85,1.07,.03,2.51-.71,3.19-1.52,.65-.77,.36-1.25-.61-1.27h0Z"></path></g><g class="cls-5"><path class="cls-1" d="M405.09,160.06c-118.25-2.86-230.55,1.52-348.43,11.39,24.94,68.32,53.16,135.45,84.52,201.08,70.04,.25,138.73-4.32,208.77-4.07,17.93-71.07,37.21-137.33,55.14-208.4"></path><path class="cls-1" d="M406.63,159c-45.54-1.1-91.11-1.15-136.65-.15-45.19,.99-90.36,2.99-135.48,5.86-25.63,1.63-51.24,3.54-76.83,5.68-.54,.04-3.84,.61-3.44,1.71,9.74,26.67,19.98,53.17,30.7,79.46,10.73,26.29,21.95,52.39,33.65,78.26,6.57,14.52,13.29,28.97,20.16,43.36,.24,.49,.95,.43,1.39,.43,27.13,.09,54.26-.54,81.37-1.33,27.15-.8,54.29-1.76,81.45-2.31,15.31-.31,30.63-.48,45.95-.43,.75,0,3.16-.47,3.41-1.46,6.88-27.24,14.11-54.39,21.43-81.52,7.25-26.85,14.58-53.67,21.7-80.55,4.09-15.42,8.1-30.87,12.01-46.34,.31-1.22-4.45-.54-4.78,.78-6.88,27.24-14.11,54.39-21.43,81.52-7.25,26.85-14.58,53.67-21.7,80.55-4.09,15.42-8.1,30.87-12.01,46.34l3.41-1.46c-27.13-.09-54.26,.54-81.37,1.33-27.15,.8-54.29,1.76-81.45,2.31-15.31,.31-30.63,.48-45.95,.43l1.39,.43c-12.24-25.62-24.01-51.47-35.29-77.54-11.28-26.06-22.07-52.33-32.37-78.8-5.78-14.85-11.4-29.77-16.87-44.74l-3.44,1.71c45.23-3.78,90.52-6.83,135.86-8.93,44.93-2.08,89.9-3.22,134.87-3.32,25.73-.06,51.46,.23,77.18,.85,1.13,.03,2.49-.2,3.42-.91,.67-.52,.71-1.2-.32-1.22h0Z"></path></g><path class="cls-6" d="M181.46,179.45c6.3,22.75,12.83,45.44,19.58,68.06,6.71,22.47,13.64,44.86,20.79,67.19,4.05,12.65,8.17,25.27,12.37,37.87,.09,.28,4.77-1.45,4.58-2-7.45-22.4-14.69-44.88-21.69-67.42-6.96-22.39-13.69-44.85-20.2-67.37-3.69-12.76-7.3-25.54-10.85-38.33-.06-.2-4.76,1.36-4.58,2h0Z"></path><g class="cls-4"><path class="cls-6" d="M202.11,174.98c-3.23-.69-6.37,2.1-7.17,5.2-.79,3.1,.11,6.34,1.01,9.4,14.42,48.96,30.18,97.56,47.26,145.72,1.99,5.62,4.26,11.57,9.21,15.09,4.1,2.91,9.39,3.67,14.46,4.2,17.02,1.78,34.22,2.01,51.29,.67,7.85-.61,16.27-1.81,21.99-7.04,4.68-4.27,6.73-10.49,8.55-16.44,15.56-50.8,27.35-102.66,35.25-155.06,.2-1.31,.36-2.75-.38-3.86-1.07-1.6-3.41-1.71-5.38-1.66-57.71,1.72-115.41,3.43-173.12,5.15"></path><g><path class="cls-6" d="M205.92,178.79c-.95,0-.6,.4-.74,.48,1.58-.14,.69-.59,.74-.48Z"></path><polygon class="cls-6" points="221.52 177.37 221.25 177.55 223.54 177.06 221.52 177.37"></polygon><path class="cls-6" d="M236.13,176.94c-1.4-.67-5.29,.27-7.9,.1l-.43-.15-1.16,.61c3.16-.19,7.26-.69,9.5-.56Z"></path><path class="cls-6" d="M243.97,178.25c-.49-.26,1.68-.29-1.82-.03,.18,.03,.23,.04,.33,.06,.31-.01,.75-.03,1.49-.03Z"></path><path class="cls-6" d="M242.48,178.28c-1.54,.07,1.01,.2,0,0h0Z"></path><path class="cls-6" d="M249.59,177.91l-2.02,.31c.43,.15,2.23,.14,1.57,.27,2.08-.2,1.64-.35,.45-.58Z"></path><path class="cls-6" d="M251.49,177.33l-1.05,.14c.19,.06,.46,.08,1.05-.14Z"></path><path class="cls-6" d="M248.22,177.76l2.22-.29c-.3-.11-.33-.34-1.02,.11,.18-.22-.26,0-1.2,.18Z"></path><path class="cls-6" d="M246.96,177.69c-1.14-.12-2.61-.18-.59-.48-3.88,.21-3.29,.7,.59,.48Z"></path><path class="cls-6" d="M236.86,176.18l-1.53-.16-1.31,.28c.65-.14,2.94,.11,2.83-.11Z"></path><path class="cls-6" d="M262.23,177.91c.12-.16-.69-.38-.85-.57l-1.49,.22c.77,.08,2.23,.13,2.34,.36Z"></path><path class="cls-6" d="M261.38,177.33l2.23-.33c-2,.03-2.36,.16-2.23,.33Z"></path><polygon class="cls-6" points="251.83 176.53 248.17 177.19 252.54 176.5 251.83 176.53"></polygon><polygon class="cls-6" points="270.78 177.67 269.52 178.06 271.77 177.46 270.78 177.67"></polygon><path class="cls-6" d="M276.46,177.44c-.93,.32,1.3,.45,.31,.66,1.54-.1,2.85-.39,4.03-.65-1.26,.16-2.6,.17-4.34-.02Z"></path><path class="cls-6" d="M282.78,177.07c-.63,.09-1.28,.23-1.98,.39,.67-.09,1.32-.2,1.98-.39Z"></path><path class="cls-6" d="M267.43,176.97c.18,.09,.52,.32,1.78,.38l-.89-.4c-.27,0-.57,.01-.88,.02Z"></path><path class="cls-6" d="M268.28,176.93h.03c.96,0,1.62-.02,1.9-.02-.24,0-.83,0-1.94,.02Z"></path><path class="cls-6" d="M267.2,176.97c.08,0,.14,0,.22,0-.09-.04-.14-.05-.22,0Z"></path><path class="cls-6" d="M257.72,176.74c1.31-.28,4.05-.62,1.38-.9-.94,.32,.59,.48-1.38,.9Z"></path><path class="cls-6" d="M266.09,176.47l-2.38-.03c.05,.11,.48,.26-.16,.4l2.55-.37Z"></path><polygon class="cls-6" points="267.26 176.3 266.09 176.47 266.98 176.48 267.26 176.3"></polygon><path class="cls-6" d="M278.69,176.79c1.02-.22,2.15-.27,3.42-.33-1.36-.04-2.77-.05-4.11,0-.18,.14-.76,.4,.69,.34Z"></path><path class="cls-6" d="M273.63,176.82c.07,0,.16-.02,.23-.03-.14-.03-.25-.04-.23,.03Z"></path><path class="cls-6" d="M294.61,176.09c-.07-.02-.13-.05-.2-.07-.01,.03-.02,.05-.04,.08h.25Z"></path><path class="cls-6" d="M277.77,176.38c-1.03-.05-1.63,.07-2.21,.22,.76-.07,1.57-.12,2.44-.15,.08-.06,.1-.1-.23-.07Z"></path><path class="cls-6" d="M286.26,176.77c-.54-.07-1.14-.13-1.78-.18,.52,.12,1.59,.3,1.78,.18Z"></path><path class="cls-6" d="M274.21,176.9c-.05,0-.1,.02-.15,.02,.34,.08,.29,.04,.15-.02Z"></path><path class="cls-6" d="M274.21,176.9c.52-.08,.94-.19,1.35-.3-.62,.05-1.2,.12-1.7,.19,.13,.03,.26,.07,.35,.11Z"></path><path class="cls-6" d="M298.32,173.23c-.17,.4-2.85,.85-5.18,.49-2.28,.36-.74,1.62,1.27,2.29,.07-.17,.06-.33,2.41-.64-.83-.19-5.23-.35-3.26-.77,3.11-.3,2.56,.06,4.08,.23-1.3-.46,3.94-.84,3.24-1.54l-2.72,.34c-.05-.11,.93-.32,.17-.4Z"></path><path class="cls-6" d="M289.93,176.11l-.97,.08c1.11,.04,1.9,.17,3.36,.44,1.6-.24,1.93-.4,2.04-.53l-4.77,.09,.33-.07Z"></path><path class="cls-6" d="M284.62,176.32c.74-.45,3.06-.71,1.62-1.13-2.84,.11-1.98,.42-3.67,.66,4.58-.24-1.31,.28,2.01,.42-.9,.1-1.71,.15-2.47,.19,.83,.03,1.62,.07,2.38,.13-.04,0-.07-.02-.11-.02h-.02s0,0,0,0c-.2-.05-.27-.08-.04-.05,.02,0,.07,0,.1-.01,.03-.06,.11-.12,.2-.17,1.33,.05,.21,.11-.2,.17-.01,.02-.05,.04-.05,.07h.02s4.58-.37,4.58-.37c-.97-.03-2.19,.02-4.34,.13Z"></path><path class="cls-6" d="M261.52,174.84c.14,.03,.14,.06,.15,.1,.3-.06,.41-.1-.15-.1Z"></path><path class="cls-6" d="M263.41,175.05c-.33,.07-.6,.25-1.69,.24-.95-.1,0-.21-.06-.35-.65,.13-2.28,.38-.22,.53l.32-.07c1.85,.09,4.24,.56,3.92,.63-.55-.37-1.03-.63-2.28-.98Z"></path><path class="cls-6" d="M274.14,175.57l3.82-.32-1.96-.31,.11,.22c-2.18-.02-1.7,.24-1.96,.42Z"></path><polygon class="cls-6" points="295.06 176.29 294.56 176.76 296.75 176.05 295.06 176.29"></polygon><polygon class="cls-6" points="300.02 176.09 299.85 176.49 301.16 176.21 300.02 176.09"></polygon><path class="cls-6" d="M327.69,356.45l-1.14,.33c.54-.14,.89-.23,1.14-.33Z"></path><path class="cls-6" d="M335.99,353.84l.11-.27c-.32,.27-.45,.41-.11,.27Z"></path><path class="cls-6" d="M375.93,209.74c-.66,1.54-1.55,3.23-1.08,3.12l.52-.41c.13-1.14,.34-1.99,.56-2.7Z"></path><path class="cls-6" d="M360.24,291.78c.08-.14,.17-.29,.25-.43-.04-.42-.08-.82-.12-1.18-.04,.48-.08,1.03-.13,1.6Z"></path><path class="cls-6" d="M361.68,293.36l-.83,2.02c.22-.44,.5-1.09,.83-2.02Z"></path><path class="cls-6" d="M282.76,358.64l-1.35,.37c2.07,.11,1.17-.16,1.35-.37Z"></path><path class="cls-6" d="M350.9,174.41c1.42,.13,2.54,.17,3.53,.16-1.71-.2-3.09-.53-3.53-.16Z"></path><path class="cls-6" d="M329.73,351.23c-.59,.26-.85,.39-.81,.49,.64-.23,.97-.43,.81-.49Z"></path><path class="cls-6" d="M358.51,174.45c-.25-.03-.49-.05-.75-.08-1.03,.1-2.07,.19-3.33,.2,1.26,.15,2.7,.22,4.08-.12Z"></path><path class="cls-6" d="M205.56,229.86c-.02-.12-.05-.26-.06-.36-.07-.02-.02,.14,.06,.36Z"></path><path class="cls-6" d="M196.61,183.9c.07,.4,.16,1.06,.3,1.7-.03-.32-.15-.84-.3-1.7Z"></path><path class="cls-6" d="M320.02,175.68c-1.05,.06-.17,.05,0,0h0Z"></path><path class="cls-6" d="M314.84,174.12c.22-.06,.39-.12,.41-.22-.08,.11-.23,.18-.41,.22Z"></path><path class="cls-6" d="M368.92,171.44s.06,0,.09,0c-.32-.08-.26-.06-.09,0Z"></path><path class="cls-6" d="M318.43,175.53c.4,.04,.85,.07,1.35,.09-.22-.03-.63-.06-1.35-.09Z"></path><path class="cls-6" d="M318.65,175.73c-.36,0-.65-.01-.92-.01-.13,.08-.01,.12,.92,.01Z"></path><path class="cls-6" d="M321.49,175.62c-.6,.02-1.17,.02-1.71,0,.21,.02,.3,.05,.24,.06,.31-.01,.74-.03,1.47-.07Z"></path><path class="cls-6" d="M233.55,311.61c-.01-.07-.02-.15-.03-.23-.52-.95-.34-.51,.03,.23Z"></path><path class="cls-6" d="M375.07,237.53s0-.08,0-.12c-.02,.05-.03,.11-.05,.15l.04-.03Z"></path><path class="cls-6" d="M374.59,241.3c-.19-1.69,.06-2.58,.43-3.75l-1.49,.97,1.05,2.78Z"></path><path class="cls-6" d="M307.94,358.38l2.7,.26c-3.21,.81-5.57,.65-3.02,1.11,.16-.68,2.77-.82,5.38-1.02,2.61-.18,5.21-.43,5.34-1.11l1.8,.13c-.51,.04-.59,.12-1.09,.15,1.76,.18,2.39-.14,3.13-.52,.74-.39,1.59-.83,3.84-1.1,1.58-.16,2.72-.23,1.68,.16,1.15-.35,2.29-.73,3.41-1.17,1.01-.27,.84,.03-.18,.3,1.76-.53,3.52-1.19,5.2-2.06l-.02,.05c.32-.27,.84-.69,1.36-1.13,.5-.45,1.01-.91,1.35-1.21,1.27-.67-.5,.53-.12,.45,.81-.67,1.58-1.39,2.28-2.15,1.2-.6-.49,1.48-2.41,2.61,1.62-.24,2.15-.76,2.89-1.6,.74-.86,1.76-2.01,3.95-4.41-.53,.86-1.1,1.71-1.75,2.51,1.92-1,3.17-3.19,5.08-6.03-.28,.31-1.33,1.71-2.22,2.54-.9,.84-1.51,1.16-.73-.36,.58-.76,1.26-1.84,1.76-3.58,.44,.19,1.09-1.46,1.78-3.49l.55,.36c.61-2.26,.22-2.18,.36-3.55,.82-2.39,1.42-2.72,2-3.17,1.25-3.79-1.55,2.4-.31-2.15,1.18-3.1,1.63-5.4,2.36-9.32,.86-2.16,.26,.5,.67-.25l.09-2.12c.15-.48,.26-.28,.31-.18,.29-1.72-.57-.32,.02-2.98-.46-.89,2.51-5.09,2.66-8.55,.4-.75,.27,.49,.58,.31,.75-4.59,.68-3.92,1.01-7.77l1.25-3.01c-1.09,2.17-.82-.9-.61-3.59-.44,.75-.81,1.4-1.03,1.84l.74-4.18c.23-.47,.34,0,.42,.74,.02-.29,.03-.57,.05-.79,.61-1.41,.77-.55,.84,.59-.26,.46-.52,.93-.77,1.38,.11,1.11,.28,2.17,.7,2.06,0-.29,.07-.82,.18-1.39,.03,.29,.08,.49,.17,.38,.1-.12,.08-.59,.09-1.3l.93-.75-.21-.3,1.84-5.26c.27-4.03,.12-7.63,1.32-13.82,.14,1.64,.75,.53,1.33,.76-1.03,1.52-.89,4.81-1.82,7.94,.48-1.64,.68-1.2,.67-.76l.83-5.8c.46,.25,.66-1.11,1.22-2.54-1.25,.88,.38-4.38,.62-6.75,.36-.07,.58,.57-.19,3.36,1.49-2.93-.2-4.28,1.14-7.18-.15,.69-.29,1.05-.18,1.36,.08-1.67,1.22-5.55,1.3-4.56l-.15,.69c1.17-4.54,3.13-13.93,2.42-14.79,.12-.02,.87,.82,.98,1.13l-1.06-8.77c.56,.87,2.85-1.54,2.45,2.34,.34-1.07,.73-2.4,.95-4.76-.25,.73-1.41,1.65-1.27,.61,1.37-2.63,.82-1.85,2.2-5.17-.38,1.09-1.25-.38-.86-2.14,.11,.31,1.14,.07,1.12,.74l-.24-4.62c-.01,1.14,.9,.38,1.4-.55-.3,.42,.76-3.81,.88-5l-.62,1.82c1.12-4.95-.64-5.21,.34-10.14,.12,.64,1.13,1.73,1.74-.76-.35-1.26-1.83-5.6-1.5-10.04l.47-.78,.19-3.42c.53,2.23,1.29,8.41,1.43,11.75,.58-1.82,.47-.45,.93-3.26,.48-.94,.19,1.61,.07,2.44l1.33-6.49c-.7,.18,.16-5.11-.43-4.95-.16,2.4-.32,4.8-.51,7.2-.71,.17-1.16-4.41-.3-9.01,.46-1.13,1.04,1.07,1.27,1.01-.13-.64,.29-4.46,.52-4.86l.03,2.02c.68-2.53-.21-4.35,.91-7.34,.21-1.06,1.35-3.06,.99-3.31-1.03,1.63-3.43,1.61-3.82,.36,.05-.16,.37-1.25,.75-2.49,.09-.3,.18-.6,.24-.9,.07-.26,.12-.53,.15-.8,.06-.54-.02-1.07-.15-1.44-.16-.31-.25-.48-.31-.6-.23-.43-.16-.58,.15-.6,.31-.01,.81,.19,1.23,.47,.65,.46,1.13,1.07,.99,.08-.08,0-.23-.16-.48-.43-.3-.24-.82-.66-1.13-.82-.55-.5-.37-.51-.35-.64,0-.06-.05-.15-.31-.32-.26-.15-.73-.39-1.62-.56-.74,.38-5.54-.29-1.44,.39-1.32,.02-1.96,.05-2.65,0-.69-.03-1.44-.09-2.86-.03,.91,.41-2.5,1.57-4.91,1.84,.14-.18-.41-.39-.68-.48-4.94,.09-7.61-.15-12.21-.01-.43-.15-2.66-.29-1.72-.61-.66,.14-1.26,.39-2.68,.45-2.77-.51,3.17-.19,1.05-.83-.17,.4-3.66,.66-5.68,.96,.64,.59,4.68-.02,6.7-.33,.03,.84-3.47,1.83-8.27,2.36-3.82,.32-1.68-.5-2.34-.36-7.19,.07-6.08,1.66-12.07,1.22-2.39-.47-.14-1.07-.68-1.44,3.11-.3,4.8,.2,6.91,.11l-2.61-.18c.99-.21,3.06-.41,4.2-.28-2-.42-12.15,.27-17.71-.01-.98,.21-2.68,.45-1.86,.64l1.75-.13c1.63,.39-3.29,.7-1.06,.83-2.35,.37-4.97,.93-8.29,.79l-.64-.59c.08,.18,2.18,.3,3.1,.09-1.37,.31-5.11-.68-6.6,.17l2.34,.36c-2.35,.38-5.26,1.12-8.2,1.01,1.35,.57,.68-.09,2.78,.56-1.84-.83,7.52-.19,4.58-1.03,2.17,.76,3.72,.24,6.54,.86-.09-.2-1-.36,1.47-.33,.11-.06,.37-.15,.54-.19,.08,0,.1,0,.17,.01-.05,0-.09-.01-.14-.02,.11-.03,.12-.04-.05,0-.59-.07-1.07-.16-1.27-.27,1.21-.5,5.13-.6,6.45-.88,1.47,.05-.61,.25,.2,.44l1.97-.42c.21,.44,3.91,.63,.47,1l3.1-.07c1.83,.2,4.35,.22,5.89-.01,1.47,.05,3.68-.61,2.42-.22l4.86-.42,.05,.11c4.8-.09,9.86-1.04,15.37-.39,1.61-.16,3.28-.35,5.99-.3l.54,.37c2.07-.2,6.24,.2,7.12-.23,1.05,.45,3.27,.47,5.72,.37,1.29-.06,2.39-.15,3.12-.05,.1,0,.18,.03,.18,.02h.08c.05,.02,.1,.03,.15,.05,.09,.04,.17,.1,.22,.18,.03,.05,.04,.11,.04,.16,.17-.05,.33-.1,.5-.15,.02,.09,.03,.19,.03,.28,0,.09,0,.15-.01,.43-.03,.46-.12,1.11-.19,1.76-.14,1.3-.27,2.67-.41,4.23l.47-.12c-.04,2.71-1.38,6.77-2.04,10.96-.12-.31,.1-1.37,.32-2.1-1.8,4.84-1.06,10.68-2.58,15.08-.04,1.16-.25,1.96-.5,2.73,.02-.1,.03-.2,.03-.28-.02,.12-.06,.29-.09,.46-.17,.48-.34,.98-.52,1.52,.19-.45,.37-.89,.48-1.27-.15,.87-.34,2.2-.47,3.51l-.57,.46c-.01,.11-.03,.19-.04,.3-.41,1.24,.04,1.06,.52,.45-.04,.67-.06,1.28-.03,1.76-.95,.89-.4,3.44-1.48,4.69,.23,.95-.95,6.55-.27,7.4-.12,.02-.25,.39-.11-.31-.39,1.42-.77,2.83-.8,4.17l-.72,.49,.17,3.3c-.76,1.83-1.15,2.57-1.2,.59-.26,4.71-.52,3.75-.64,7.79l-.35-.27c-.27,1.39-.25,3.72-.75,4.48-1.41,2.93-3.51,15.3-6.16,23.03,1.5-1.26-1.39,3.55-.6,4.08-.38,.39-.81,1.46-.72,.12-.75,4.09-1.95,5.94-1.91,8.91-.39,.39-.17-.96-.44-.59-.02,.34-.1,1.34-.37,1.71-.27,.37-.07-.65-.02-1.31-1.03,4.11-.31,4.74,.38,5.24-.91,1.99-1.13,3.04-1.02,4.67-.45,.66-1.03,1.79-.44-.78-.41,1.43-2.74,8.64-2.16,8.96-.28,.41-.59,1.99-.63,2.38-.94,3.19-1.07,3.46-1.9,6.62l.35-.84c.39,1.45-.56,2.67-1.22,5.22l-.05-.09c-2.23,5.65-.47,2.58-2.76,8.12l.55-.17c.83,.83-2.11,4.89-2.73,8.31l.62-1.12c-.2,1.93-2.87,4.64-3.62,6.28-.22,.34,.08-.63,.2-1.19-1.07,2.16-1.01,2.31-.77,2.42,.23,.09,.63,.09,0,1.75-.58,.44-.44-1.08-1.48,.98-.37,.45-.85,2.05-1.76,3.69-.87,1.66-2.29,3.28-3.71,3.91,.35-.08,.69-.19,.81-.14,.12,.05,.04,.3-.55,.84-.95,.76-2.5,1.41-4.06,1.9-1.55,.51-3.09,.91-4.08,1.61-.33,0-.46-.03-.49-.09-.89,.36-2.42,.75-3.88,1.11-1.46,.36-2.84,.66-3.42,.95-1-.71-4.05-.25-6.92,.16-2.86,.4-5.5,.76-5.51,0-2.05,.12-4.1,.22-6.16,.3l.16-.16c-3.94,0-5.33,.35-6.71,.72-.91-.1-.25-.25-.17-.33-5.76-.33-6.32-.3-11.18,.3l-.48-.52c-1.33,.26-8.27-1.17-13.93-1.12,.06-.05,.19-.14,.64-.17-3.18-.01-6.99-.66-10-1.47-1.51-.4-2.84-.83-3.92-1.15-1.09-.31-1.94-.53-2.63-.37-1.19-.49-2.31-1.12-3.36-1.92,.9,.89,1.36,1.26,1.46,1.46,.11,.19-.1,.16-.39,.07-.59-.16-1.5-.64-.75,.19-.87-.63-1.76-1.71-2.12-2.41-.37-.71-.35-.94,.51-.01l.19,.36c.66,.01-.39-1.19-1.3-2.62-.94-1.42-1.72-3.09-1.41-3.16-1.15-2.29-2.03-4.75-2.87-7.25-.83-2.52-1.65-5.01-2.46-7.49-1.6-4.97-3.17-9.85-4.78-14.61l-.31,1.33-1.1-3.33c-.14-.93,.14-1.35,.93,1.02-.04-1.38-1.7-3.85-1.87-3.87-1.3-4.73,1.43,1.53,.96,.11l-.71-1.91,.07,.46c-.82-1.47-1.16-1.5-2.1-4.36-.48-1.85,.11-1.07-.1-1.79,.05-.01,0-.26-.35-1.09l-1.36-4.21,.02,1.86c-.9-1.77-1.3-3.95-1.27-1.81-.01-3.16-4.9-15.75-5.17-17.6-1.26-2.47-2.11-5.05-3.1-8.25,.14,.83-.32,1.51-1.14-1.27,1.6,.59-1.1-5.22-.89-7.74,.03,2.19-2.67-7.78-2.53-4.38-.64-2.33,.43-.29,.17-2.13-2.25-5.32-3.53-12.17-5.82-18.89-.2-.05-.1,1.16-.81-.21l-.28-3.84c-.5-1.31-1.35-.93-1.53-3.56-.03,.39-.09,.97-.42,.09-1.65-6.77-3.9-13.52-6.04-20.33-1.06-3.41-2.11-6.82-3.04-10.27-.46-1.72-.9-3.45-1.29-5.19-.39-1.73-.79-3.5-.98-5.13,.12,1.83-.24,.67-.54-.66,.11,.88-.43,.07-.63,.29-.18-1.88-.09-3.69,.51-5.15-.25-.45,.16-1.69,1-2.6,.81-.95,1.83-1.4,1.94-1.76-.44,.21-.87,.48-1.24,.82,.29-.44,.28-.65,.01-.73-.26-.07-.77,.01-1.33,.24-.56,.22-1.15,.58-1.63,.87-.47,.29-.85,.48-1.01,.28-.45,1.6-1.18,3.53-1.28,5.84-.12,2.3,.37,4.74,1.6,6.74,.1,1.03-.54-.74-.6-.16,.72,1,1.2,2.32,1.77,4.86l-.18-.25c2.17,6.97,2.68,10.09,4.81,18.02l.28-.72c.45,1.71,.42,2.1,.54,2.93,1.28,1.73-1.4-4.75-.11-3.22-.25,2.52,3.62,11.9,3.04,13.73,.79,2.59,.29-.92,1.08,1.67l-.07,.77,.57,.54c.47,1.72,.38,2.68,.16,2.82-.1-.42-.43-1.15-.59-1.59,.35,2.31,2.04,6.18,2.18,6.96l-.6-2.54c2.47,6.98,4.83,15.72,7.6,22.35l.05-.59c2.07,5.07,1.1,4.24,3.14,9.88l-.12-.19c.58,1.07,1.19,2.56,1.67,4.13-.72-1.36,.4,2.87-.49,1.07,2.27,5.49,1.25,2.68,3.26,6.13l-.07,.97c.74,1.16,.94,1.21,1.97,4.02-1.08-2.23,.07,1.99-1.2-.49,1.22,6.22,3.73,8.59,3.53,11.7,1.89,2.41-1.2-5.34-.47-3.87-.11-1.39,1.48,2.01,2.02,3.91,.62,1.91-.16,3.66,1.49,8.43-.16-.48-.24-.48-.4-.96,.36,1.87,1.53,3.39,1.88,5.72,1.01,1.03,.94,2.86,1.81,2.96l-1.67-4.32c1.04,2.42,2.72,4.45,3.71,8.68-.26-.27-.88-1.41-1.28-2.21,.19,1.27,.94,2.25,1.14,3.57-.87-.1-2-5.26-3.48-7.73,.12,1.4,2.28,4.85,1,3.79,1.7,1.57,1.49,4.75,3.4,7.71l-.52-.06c.25,.49,.83,1.47,1.15,2.42l-1.18-1.5c1.41,2.44,1.32,5.19,2.47,7.61-1.85-5.25,.13-1.37-.32-3.7,2.86,6.27,.13,4.13,2.9,11.3-.41-.96-1.03-3.78-.28-2.32,.4,1.41,.86,3.29,.93,4.23,1.89,4.85,.18-.92,1.21,1.06,.08,1.86,1.12,2.33,2.23,4.35l-.43,.22c.58,1.42,1.04,2.18,1.37,2.61,.33,.43,.53,.52,.72,.6,.42,.14,.62,.28,2.2,2.6-.67-.47-1.33-.98-1.97-1.53,.61,.79,1.24,1.56,1.96,2.27l-.83-.12c1.23,1.16,2.11,1.83,2.95,2.54,.86,.67,1.72,1.38,3.15,2.21-.5-.69,.75-.44,3.32,.44,.84,.44,.56,.45,.53,.52-.03,.05,.19,.2,2.08,.63-.91,.09-1.99,.22-3.48-.8-.22,.08-.94-.04-1.18,.02,1.85,1.19,4.98,1.71,6.34,1.92-.53-.12-1.16-.27-1.47-.42,1.89,.2,3.74,.24,5.54,.23,.82,.28,.14,.35-.55,.41,1.1,.08,1.87-.06,3.44,.06-.45,.34-.38,.78-2.66,.71,1.73,.05,3.41,.06,5.11,.08,.32,.2,2.55,.69,1.89,.78,2.79,.47,6.94-.23,10.64,.24,.2-.07,.59-.12,1.38-.15,3.49,.23,6.59,.8,10.75,.28l2.36,.7c3.25-.18-3.19-.87,2.22-1.17,3.82-.28,1.44,.58,2.79,.75,1.9-.4,5.18-1.21,8.72-.83-1.16,.19-2.07,.14-3.16,.23Zm37.78-13.51c-.35,.76-1.07,2.35-1.72,2.64,.18-1.1,.8-1.52,1.72-2.64Zm16.89-58.52c0,.59-.29,1.43-.72,2.35,.15-.71,.37-1.5,.72-2.35Zm-31.06-111.41s.05-.02,.08-.03c1.72,.14,1.11,.08-.08,.03Zm-3.57-.1c-.36,.08-.33,.14-.18,.21,.25-.13,1.05-.16,1.96-.15-.26-.12-.72-.19-1.78-.05Zm-95.01,125.06l.1,.7c-.64-1.44-.38-1.06-.1-.7Z"></path><path class="cls-6" d="M361.52,293.16c-.13,.19-.24,.23-.34,.25,0,.31,.09,.34,.34-.25Z"></path><path class="cls-6" d="M283.01,358.57h-.12c-.07,.02-.11,.04-.13,.07l.25-.07Z"></path><path class="cls-6" d="M384.26,170.73c.48,.44,.71,.86,.86,1.15,.12,.26,.18,.45,.22,.61,.07,0,.08-.18-.16-.65-.14-.25-.4-.67-.92-1.11Z"></path><path class="cls-6" d="M309.12,176.22l2.28-.19c-1.1,.06-1.5-.04-2.06-.1,.05,.11,.5,.26-.22,.29Z"></path><path class="cls-6" d="M289.21,173.83c-.33,.07-.71,.03-1.03,.1l.1,.22c1.42-.06,2.41-.27,.94-.32Z"></path><path class="cls-6" d="M306.96,174.69c-.19-.4-1.62-.22-3.22-.1,.1,0,.19,0,.28,0-.45,.58,1.24,.34,2.94,.11Z"></path><path class="cls-6" d="M303.37,174.61c-.49,.03-1,.06-1.48,.05-.18,.23,.6,.03,1.48-.05Z"></path><path class="cls-6" d="M323.47,175.25c-.76-.08-.46,.53-.89,.38-.83,.54,5.04-.78,.89-.38Z"></path><polygon class="cls-6" points="305.62 173.39 306.21 173.87 307.1 173.44 305.62 173.39"></polygon><path class="cls-6" d="M318.26,173.38l-2.56-.06c.04,.08-.28,.14-.68,.19,1.58-.03,3.3,.02,3.24-.13Z"></path><path class="cls-6" d="M315.02,173.51c-.82,.01-1.6,.05-2.05,.14,.44-.02,1.4-.06,2.05-.14Z"></path><polygon class="cls-6" points="309.11 173.13 309.87 173.22 311.68 173.2 309.11 173.13"></polygon><path class="cls-6" d="M345.74,172.66l2.79-.23c.28-.18-.48-.26-1.52-.16-.66,.14-1.7,.24-1.26,.39Z"></path><path class="cls-6" d="M337.26,171.54c.76,.08,.81,.19,1.24,.34l.07-.62-1.31,.28Z"></path><path class="cls-6" d="M345.39,171.15c.27-.18,4.03-.61,.5-.47-.28,.18-3.07,.41-.5,.47Z"></path><path class="cls-6" d="M384.32,176.18c.03-.24,.05-.48,.06-.72l-1.02,.03c.33,.21,.65,.45,.96,.69Z"></path><path class="cls-6" d="M380.57,213.18c.84-3.22-.48-.89,.37-3.78-.1-.81-.69,2.36-.75,1.54-.11,2.01-.44,3.02,.38,2.24Z"></path><path class="cls-6" d="M380.19,210.94c.02-.32,.03-.67,.03-1.03-.04,.58-.04,.86-.03,1.03Z"></path><path class="cls-6" d="M198.59,178.57c.38-.3,.8-.53,1.19-.66-.29,.03-.6,.09-.91,.22-.11,.14-.2,.29-.29,.44Z"></path><path class="cls-6" d="M200.61,176.61c.14,.21,.27,.41,.36,.61,.11-.1,.22-.19,.35-.29,.13-.08,.27-.15,.42-.24-.31-.04-.88,.01-1.14-.09Z"></path><path class="cls-6" d="M349.72,339.72l-.08-.22c-.29,.26-.49,.75-.95,1.73,.36-.5,.69-1,1.03-1.51Z"></path><polygon class="cls-6" points="325.03 357.55 325.55 357.49 324.5 357.05 325.03 357.55"></polygon><path class="cls-6" d="M300.5,359.85c1,.01,2.18-.14,3.18-.15-2.18,.17-3.46-.59-3.18,.15Z"></path></g></g><g><path class="cls-2" d="M109.26,333.54c-9.01,1.23-17.09,7.78-20.15,16.34-.94,2.64-1.44,5.42-1.66,8.21-.22,2.78-.16,5.65,.9,8.22,.78,1.89,2.06,3.52,3.5,4.97,4.45,4.48,10.6,7.31,16.92,7.48,6.31,.17,12.71-2.41,16.94-7.09,3.03-3.35,4.89-7.61,5.99-11.99,.58-2.28,.96-4.65,.6-6.98-.32-2.04-1.19-3.94-2.17-5.76-2.12-3.95-4.84-7.67-8.5-10.26-3.66-2.58-8.38-3.91-12.72-2.82"></path><path class="cls-2" d="M109.67,332.41c-9.14,1.32-17.62,6.74-21.82,15.1-2.31,4.58-3.3,10.25-2.86,15.35,.45,5.18,3.84,9.21,7.96,12.12,8.37,5.92,19.62,6.52,28.64,1.62,4.46-2.43,7.91-6.09,10.15-10.64,2.24-4.56,4.11-10.52,2.59-15.55-.8-2.65-2.29-5.15-3.8-7.45s-3.42-4.59-5.65-6.36c-4.6-3.66-10.48-5.07-16.22-3.73-.59,.14-2.41,.69-2.19,1.59s2.14,.56,2.67,.43c4.06-.94,8.42,1.08,11.49,3.62,3.29,2.73,5.8,6.38,7.67,10.2,1.07,2.18,1.78,4.46,1.69,6.91-.09,2.44-.77,4.9-1.55,7.2-1.4,4.12-3.63,8.09-7.08,10.83-6.58,5.23-15.29,4.85-22.32,.67-3.56-2.11-7.26-5.38-8.57-9.42-1.46-4.51-.66-10.01,.74-14.44,2.47-7.8,9.35-14.61,17.62-15.81,.79-.11,2.6-.46,2.82-1.42s-1.47-.91-2-.84h0Z"></path></g><path class="cls-1" d="M215.78,185.78c1.49,10.83,4.97,21.26,8.19,31.67,3.3,10.64,6.63,21.27,9.99,31.89,6.74,21.32,13.6,42.6,20.58,63.85,3.91,11.92,7.87,23.82,11.85,35.71,.39,1.18,3.28,.37,2.9-.78-7.11-21.2-14.1-42.44-20.98-63.72-6.87-21.28-13.63-42.6-20.27-63.95-3.62-11.64-7.7-23.32-9.37-35.45-.16-1.16-3.07-.47-2.9,.78h0Z"></path><path class="cls-1" d="M246.87,184.02c6.85,20.77,13.78,41.52,20.78,62.24,7.03,20.8,14.13,41.58,21.3,62.33,4.03,11.67,8.09,23.33,12.18,34.98,.21,.6,3.07-.28,2.9-.78-7.23-20.64-14.39-41.31-21.48-62.01-7.11-20.77-14.15-41.57-21.11-62.39-3.91-11.71-7.8-23.42-11.67-35.15-.19-.59-3.07,.26-2.9,.78h0Z"></path><path class="cls-1" d="M276.19,180.41c6.51,19.91,13.3,39.73,20.38,59.44,7.08,19.71,14.46,39.32,22.12,58.82,4.33,11.03,8.76,22.03,13.28,32.99,.25,.62,3.08-.33,2.9-.78-7.98-19.37-15.68-38.85-23.09-58.44-7.41-19.59-14.53-39.29-21.37-59.09-3.87-11.21-7.64-22.44-11.32-33.71-.19-.59-3.07,.26-2.9,.78h0Z"></path><path class="cls-1" d="M306.55,182.94c2.46,13.88,7.76,26.99,13.07,39.98,5.61,13.73,11.22,27.45,16.83,41.18,3.14,7.67,6.27,15.34,9.41,23.01,.53,1.29,3.41,.47,2.9-.78-5.61-13.73-11.22-27.46-16.84-41.19-5.48-13.4-11.29-26.72-16.2-40.35-2.65-7.38-4.9-14.91-6.27-22.63-.24-1.33-3.14-.6-2.9,.78h0Z"></path><path class="cls-1" d="M333.94,178.81c5,18.84,13.11,36.6,19.93,54.81,1.93,5.15,3.75,10.35,5.37,15.6,.38,1.22,3.27,.43,2.9-.78-5.74-18.61-14.01-36.3-20.42-54.67-1.81-5.19-3.46-10.43-4.87-15.75-.32-1.22-3.22-.45-2.9,.78h0Z"></path><path class="cls-1" d="M212.18,211.73c7.4-8.38,14.8-16.75,22.2-25.13,.47-.53-.4-.81-.78-.83-.7-.03-1.45,.26-1.91,.79-7.4,8.38-14.8,16.75-22.2,25.13-.47,.53,.4,.81,.78,.83,.7,.03,1.45-.26,1.91-.79h0Z"></path><path class="cls-1" d="M223.13,237.47c14.92-15.71,29.84-31.41,44.76-47.12,1.03-1.09,2.07-2.17,3.1-3.26,.72-.76,2.21-1.81,2.4-2.91,.38-2.2-4.17-1.18-3.5,.42,.47,1.12,3.33,.27,2.9-.78l-.05,.19-.76,.62,.19-.08-1.14,.22h.2c-.27-.1-.53-.21-.8-.31-.07-.07-35.4,37.38-38.64,40.79-3.67,3.87-7.35,7.73-11.02,11.6-1.21,1.27,1.61,1.43,2.37,.63h0Z"></path><path class="cls-1" d="M236.44,278.05c18.59-21.47,37.79-42.41,57.58-62.77,5.59-5.75,11.23-11.46,16.92-17.12,.45-.45-.41-.46-.68-.44-.59,.04-1.5,.24-1.94,.68-20.12,20.04-39.67,40.65-58.6,61.82-5.35,5.98-10.65,12-15.9,18.07-.41,.47,.37,.46,.68,.44,.55-.04,1.55-.23,1.94-.68h0Z"></path><path class="cls-1" d="M243.9,315.74c14.78-13.85,29.43-27.83,43.95-41.94,14.52-14.11,28.92-28.36,43.18-42.74,8.02-8.08,15.99-16.21,23.93-24.38,1.19-1.22-1.64-1.23-2.33-.51-14.11,14.52-28.36,28.92-42.73,43.18-14.38,14.26-28.88,28.39-43.52,42.39-8.23,7.87-16.5,15.7-24.81,23.48-.46,.43-.29,.9,.28,1.06,.64,.18,1.57-.1,2.05-.55h0Z"></path><path class="cls-1" d="M261.66,347.39c22.75-22.03,45.18-44.38,67.29-67.05,6.27-6.43,12.51-12.88,18.73-19.35,.46-.47,.27-1.02-.33-1.22-.65-.22-1.58,.06-2.05,.55-21.93,22.84-44.18,45.38-66.75,67.59-6.4,6.3-12.82,12.57-19.27,18.81-.48,.46-.25,1.02,.33,1.22,.67,.23,1.56-.08,2.05-.55h0Z"></path><path class="cls-1" d="M296.51,340.77c12.59-12.57,25.85-24.46,39.72-35.6,.53-.43-.47-.5-.69-.49-.67,.03-1.41,.27-1.94,.7-13.87,11.14-27.13,23.03-39.72,35.6-.46,.46,.41,.5,.69,.49,.61-.03,1.49-.25,1.94-.7h0Z"></path><g><path class="cls-6" d="M141.44,381.66c-7.55,7.22-16.77,13.51-27.22,18.58-3.37,1.63-7.19,3.2-11.44,2.87-1.37-.1-2.8-.44-3.8-1.16-2.17-1.56-1.45-4.03-.56-5.99,4.37-9.59,8.74-19.19,13.1-28.78-2.18-.85-4.86-.52-6.78,.4-1.92,.92-3.22,2.34-4.41,3.76-9,10.71-14.13,23.21-14.8,36.1-.11,2.09-.02,4.37,1.83,6.11,1.33,1.25,3.41,2.02,5.5,2.38,7.21,1.21,13.76-2.09,18.83-5.51,11.71-7.91,21.2-17.47,27.85-28.07"></path><path class="cls-6" d="M139.71,379.87c-7.67,7.3-16.54,13.26-26,17.98-4.69,2.34-10.16,4.73-15.41,2.8-1.26-.46,1.35,1.09,1.22,1.4,.04-.09-.16-.66-.18-.8-.06-.54,.02-1.08,.15-1.61,.29-1.2,.89-2.32,1.4-3.44,1.26-2.77,2.53-5.55,3.79-8.32,2.87-6.3,5.73-12.59,8.6-18.89,.22-.48-.96-1.59-1.2-1.85-.58-.63-1.29-1.46-2.13-1.76-3.97-1.42-7.92,.35-10.61,3.32-2.94,3.26-5.49,6.94-7.67,10.75-4.2,7.33-6.9,15.49-7.7,23.91-.18,1.83-.42,3.81,0,5.62,.52,2.23,2.15,4.04,3.79,5.55,3.27,3,7.73,3.83,12.05,3.34,4.25-.48,8.22-2.25,11.83-4.48,3.71-2.29,7.23-4.95,10.57-7.74,7.4-6.16,13.94-13.35,19.08-21.5,.51-.81-3.32-3.83-3.47-3.6-4.15,6.58-9.21,12.54-14.9,17.83-3.01,2.79-6.19,5.4-9.5,7.82-3.19,2.33-6.48,4.59-10.11,6.15-3.85,1.66-8.06,2.48-12.23,1.72-.9-.16-1.79-.4-2.64-.74-.48-.19-.89-.47-1.35-.7-.72-.35,.84,1.42,.68,.54-.04-.24-.18-.49-.25-.73-.45-1.74-.24-3.62-.08-5.39,.7-7.89,3.13-15.58,6.88-22.55,2.14-3.99,4.71-7.74,7.61-11.21,2.81-3.36,6.67-5.92,11.19-4.31l-3.33-3.61c-2.8,6.15-5.6,12.29-8.4,18.44-1.43,3.15-2.87,6.3-4.3,9.44-.94,2.06-1.94,4.28-.64,6.42,1.54,2.54,4.11,4.7,7.1,5.15,2.83,.42,5.76-.13,8.42-1.09,5.54-1.98,10.85-5.14,15.79-8.29,5.5-3.5,10.68-7.5,15.41-12,.45-.43-3-4.05-3.47-3.6h0Z"></path></g><g><path class="cls-6" d="M207.89,380.64c5.78,7.63,10.16,17.47,7.39,26.63-2.35,7.76-9.51,13.82-10.12,21.91-.04,.48-.05,.98,.13,1.44,.54,1.4,2.48,1.64,3.9,1.16,3.23-1.09,5.15-4.33,6.77-7.34,2.71-5.03,5.4-10.14,6.89-15.66,1.49-5.52,1.7-11.56-.5-16.84s-7.11-9.61-12.81-10.11"></path><path class="cls-6" d="M205.6,381.51c5,6.66,9.36,15.2,7.72,23.77-1.51,7.87-8.18,13.47-10.16,21.18-.43,1.67-.97,4,.12,5.52,1.17,1.63,3.64,1.89,5.46,1.58,4.15-.69,6.92-4.12,8.87-7.57,4.56-8.07,9.03-16.9,8.83-26.4-.19-9.16-6.24-18.39-15.92-19.39-1.13-.12-2.63,.1-3.26,1.2-.55,.98,.27,1.94,1.29,2.04,7.4,.76,11.98,7.75,12.8,14.65,1.03,8.66-2.83,16.86-6.79,24.29-1.4,2.63-2.99,6.62-5.97,7.83-.23,.09-.39,.22-.61,.08-.57-.37-.37-1.29-.3-1.87,.21-1.66,.69-3.3,1.37-4.82,2.93-6.58,8.31-11.97,9.34-19.35,1.23-8.88-3.01-17.56-8.2-24.48-1.26-1.68-6-.15-4.58,1.73h0Z"></path></g><g><path class="cls-2" d="M219.6,406.48c-5.87-1.88-12.52-.16-17.45,3.55-5.47,4.12-9.06,10.63-9.63,17.45-.56,6.82,1.91,13.84,6.63,18.79,4.62,4.85,11.58,7.68,18.15,6.41,6.43-1.24,11.65-6.11,15.11-11.67,2.14-3.43,3.76-7.25,4.17-11.27,.56-5.54-1.31-11.28-5.04-15.42s-9.24-6.6-14.81-6.62"></path><path class="cls-2" d="M220.78,404.62c-10.36-3.17-21.54,2.75-26.92,11.67-5.41,8.96-4.96,20.32,1.16,28.82,6.05,8.4,17.57,12.4,27.19,7.9,4.61-2.15,8.36-5.69,11.27-9.82,3.09-4.39,5.4-9.61,5.61-15.04,.22-5.73-2-11.63-6.02-15.73-4.12-4.2-9.86-6.59-15.73-6.67-1.18-.02-2.59,.62-2.96,1.84-.35,1.14,.64,2.05,1.74,2.06,8.87,.12,16.52,6.74,17.9,15.53,.72,4.56-.38,9.12-2.53,13.16-1.95,3.66-4.56,7.17-7.97,9.6-3.27,2.34-7.02,3.48-11.04,2.96-4.12-.53-8.07-2.72-10.97-5.65-6.19-6.25-8.27-15.81-5.2-24.05,3.24-8.69,12.58-15.77,22.1-12.86,1.17,.36,2.66-.22,3.31-1.25,.63-1,.19-2.12-.93-2.46h0Z"></path></g><g><path class="cls-6" d="M122.63,259.57c1.49,4.83,4.26,9.27,7.94,12.74,.77,.73,1.63,1.44,2.66,1.66,2.21,.48,4.37-1.57,4.72-3.81s-.63-4.48-1.84-6.39c-1.2-1.89-2.64-3.63-4.29-5.15-1.59-1.47-3.57-2.8-5.73-2.65-2.16,.15-4.17,2.52-3.23,4.47"></path><path class="cls-6" d="M121.18,259.96c1.19,3.79,3.12,7.33,5.69,10.37,1.17,1.38,2.52,3.05,4.18,3.84,1.69,.81,3.81,.35,5.41-.47,1.44-.75,2.57-2.06,2.9-3.67,.41-2.03-.32-4.09-1.31-5.84s-2.29-3.44-3.71-4.92-2.94-2.87-4.87-3.51c-1.98-.66-4.28-.31-6.07,.74-1.49,.87-2.72,2.58-1.98,4.34,.26,.62,3.08-.34,2.9-.78-.52-1.23-.04-2.54,.98-3.35,.09-.07,.21-.13,.29-.21,.3-.27,.01,.04-.15,.02,.4,.05,.79,.06,1.18,.17,.74,.21,1.44,.59,2.08,1.02,2.66,1.77,4.89,4.51,6.44,7.27,1.42,2.51,2.4,6.25-.25,8.35-.08,.06-.24,.14-.3,.21l-.11,.06c.4-.05,.49-.09,.28-.09-.01-.04-.84-.22-.97-.28-.7-.33-1.29-.86-1.85-1.38-1.13-1.06-2.16-2.22-3.1-3.45-2.11-2.77-3.71-5.89-4.75-9.21-.18-.58-3.06,.25-2.9,.78h0Z"></path></g><path class="cls-6" d="M117.32,244.29c-1.42,6.69-5.29,12.74-10.78,16.82,.72,.36,1.44,.71,2.17,1.07,.72-.75,1.44-1.5,2.16-2.24,.48-.5,.22-1.15-.37-1.38-.69-.27-1.56,.04-2.05,.55-.72,.75-1.44,1.5-2.16,2.24-.42,.44-.28,1.05,.23,1.31,.59,.31,1.42,.13,1.94-.25,6.01-4.46,10.24-11.02,11.8-18.34,.3-1.4-2.66-1.04-2.93,.23h0Z"></path><g><path class="cls-6" d="M159.54,240.17c-2.64,5.85,.76,12.51,4.06,18.01,.48,.8,1.11,1.7,2.04,1.75,.51,.03,1-.22,1.44-.5,2.68-1.75,4.05-5.09,4.01-8.3-.04-3.2-1.3-6.28-2.96-9.03-.77-1.28-1.73-2.57-3.13-3.08s-3.32,.18-3.56,1.65"></path><path class="cls-6" d="M158.11,240.43c-1.67,3.88-.88,8.04,.71,11.81,.83,1.98,1.87,3.86,2.96,5.7,.95,1.61,1.84,2.8,3.88,2.45,3.71-.63,6.11-4.14,6.71-7.64,.7-4.14-.99-8.5-3.32-11.86-1.12-1.62-2.61-2.76-4.66-2.58-1.6,.14-3.96,.82-4.38,2.62-.12,.53,2.69,.15,2.85-.54,.05-.23,.12-.46,.25-.67,.04-.06,.33-.32,.35-.39-.06,.24-.55-.17-.27,.08,.14,.12,.68,.18,.87,.27,.38,.19,.72,.44,1.03,.73,1.13,1.03,1.9,2.51,2.58,3.86,1.45,2.86,2.38,6.14,1.79,9.35-.25,1.35-.77,2.66-1.54,3.8-.4,.59-.86,1.12-1.41,1.57-.19,.16-.68,.37-.8,.57l.77-.26-.24-.12c-.09-.13-.31-.23-.43-.34-1.08-1.06-1.78-2.75-2.49-4.06-.76-1.4-1.45-2.84-2.01-4.34-1.29-3.41-1.83-7.11-.35-10.55,.19-.45-.99-.25-1.14-.22-.42,.08-1.5,.28-1.71,.76h0Z"></path></g><path class="cls-6" d="M147.43,231.49c4.38,1.6,9.07,2.08,13.69,1.51,2.27-.28,4.51-.84,6.67-1.61,1.13-.4,2.23-.89,3.3-1.43,.48-.24,.96-.5,1.42-.77,.29-.17,.58-.35,.86-.53,.1-.07,.2-.13,.31-.19,.16-.14,.19-.11,.1,.1,.57,.69,3.35-.3,2.7-1.09-1.34-1.62-4.06-.02-5.39,.79-2.1,1.27-4.37,2.2-6.75,2.78-4.82,1.18-9.95,.82-14.6-.88-.64-.23-1.48-.04-2.04,.3-.32,.19-.94,.78-.28,1.02h0Z"></path><path class="cls-6" d="M133.63,294.19c3.02-3.46,7.73-4.89,12.12-3.37,2.06,.71,3.92,2,5.33,3.66,1.32,1.54,1.99,3.98,4.32,4.16,.66,.05,1.59-.21,1.9-.86s-.26-1.06-.85-1.1c-.89-.07-1.68-2.11-2.15-2.75-.71-.96-1.56-1.8-2.48-2.54-1.92-1.56-4.26-2.56-6.69-2.97-5.08-.86-10.51,1.19-13.88,5.05-1.18,1.35,1.6,1.64,2.39,.73h0Z"></path><path class="cls-6" d="M122.46,287.16c-3.42,2.57-4.29,7.99-1.36,11.27,.49,.54,1.35,.5,1.97,.21,.46-.22,1.18-.93,.69-1.48-1.14-1.27-1.62-2.94-1.47-4.62,.08-.88,.27-1.59,.66-2.35,.22-.44,.29-.55,.58-.91,.15-.18,.3-.35,.47-.52s-.23,.18,.08-.07c.1-.08,.2-.16,.3-.24,.48-.36,.75-1.07,.16-1.48s-1.54-.23-2.08,.18h0Z"></path></g></svg>