<?xml version="1.0" encoding="UTF-8" standalone="no"?>
<!DOCTYPE svg PUBLIC "-//W3C//DTD SVG 1.1//EN" "http://www.w3.org/Graphics/SVG/1.1/DTD/svg11.dtd">
<svg width="100%" height="100%" viewBox="0 0 45 45" version="1.1" xmlns="http://www.w3.org/2000/svg" xmlns:xlink="http://www.w3.org/1999/xlink" xml:space="preserve" xmlns:serif="http://www.serif.com/" style="fill-rule:evenodd;clip-rule:evenodd;stroke-linejoin:round;stroke-miterlimit:2;">
    <g transform="matrix(1,0,0,1.7003,0,0)">
        <rect x="0" y="0" width="45" height="26.466" style="fill:#fff;"/>
    </g>
    <g transform="matrix(1.2705,0,0,1.2705,29.3511,15.5323)">
        <path d="M0,-1.823C0.177,-1.894 0.424,-1.92 0.637,-1.92C1.292,-1.92 1.744,-1.54 1.744,-0.858C1.744,-0.055 1.243,0.309 0.575,0.318L0.575,1.248L0.628,1.248C2,1.248 2.824,0.478 2.824,-0.894C2.824,-2.142 1.947,-2.876 0.655,-2.876C0,-2.876 -0.647,-2.726 -1.071,-2.549L-1.071,2.754L0,2.754L0,-1.823ZM5.984,-1.814C5.815,-1.894 5.594,-1.938 5.329,-1.938C4.682,-1.938 4.249,-1.54 4.249,-0.841C4.249,-0.088 4.718,0.337 5.47,0.337C5.603,0.337 5.807,0.328 5.984,0.293L5.984,-1.814ZM7.046,1.063C6.577,1.187 5.966,1.248 5.435,1.248C4.072,1.248 3.168,0.523 3.168,-0.805C3.168,-2.062 4.01,-2.876 5.24,-2.876C5.514,-2.876 5.807,-2.841 5.984,-2.752L5.984,-4.577L7.046,-4.577L7.046,1.063ZM-2.733,-1.814C-2.901,-1.894 -3.122,-1.938 -3.388,-1.938C-4.034,-1.938 -4.468,-1.54 -4.468,-0.841C-4.468,-0.088 -3.999,0.337 -3.246,0.337C-3.113,0.337 -2.91,0.328 -2.733,0.293L-2.733,-1.814ZM-1.67,1.063C-2.139,1.187 -2.75,1.248 -3.281,1.248C-4.645,1.248 -5.548,0.523 -5.548,-0.805C-5.548,-2.062 -4.707,-2.876 -3.476,-2.876C-3.202,-2.876 -2.91,-2.841 -2.733,-2.752L-2.733,-4.577L-1.67,-4.577L-1.67,1.063Z" style="fill:#434143;fill-rule:nonzero;"/>
    </g>
    <g transform="matrix(6.00425,-5.03817,5.03817,6.00425,6.7552,18.3947)">
        <path d="M1.535,-0.656C1.528,-0.663 1.519,-0.667 1.51,-0.669L0.739,-0.825L1.042,0.017C1.046,0.025 1.044,0.036 1.038,0.042L0.616,0.545C0.611,0.552 0.6,0.555 0.592,0.553L0.545,0.544C0.542,0.544 0.538,0.542 0.534,0.539L0.533,0.538C0.53,0.535 0.527,0.531 0.525,0.527L0.508,0.483C0.505,0.475 0.507,0.464 0.512,0.458L0.888,0.009C0.891,0.006 0.892,-0 0.89,-0.004L0.623,-0.746L0.124,-0.151C0.113,-0.137 0.108,-0.113 0.114,-0.097L0.386,0.672C0.389,0.68 0.395,0.688 0.402,0.694C0.41,0.701 0.419,0.705 0.427,0.707L1.231,0.841C1.248,0.844 1.272,0.835 1.283,0.822L1.782,0.227L1.255,0.136C1.247,0.135 1.239,0.127 1.237,0.119L1.221,0.074C1.219,0.071 1.219,0.066 1.22,0.062C1.22,0.061 1.22,0.061 1.22,0.061C1.221,0.056 1.223,0.051 1.225,0.048L1.255,0.011C1.26,0.005 1.27,0 1.279,0.002L1.84,0.099L1.553,-0.633C1.55,-0.642 1.543,-0.65 1.536,-0.656L1.535,-0.656Z" style="fill:url(#_Linear1);fill-rule:nonzero;"/>
    </g>
    <g transform="matrix(1.2705,0,0,1.2705,-397.162,-461.709)">
        <rect x="312.602" y="384.237" width="35.419" height="14.588" style="fill:#da1f35;"/>
    </g>
    <g transform="matrix(1.2705,0,0,1.2705,9.69941,39.9073)">
        <path d="M0,-6.825L-2.33,-6.825L-2.33,-1.287L-1.965,-1.287L-1.965,-3.03L-1.964,-3.03L-1.964,-3.356L-1.965,-3.356L-1.965,-6.499L-0.041,-6.499C0.837,-6.499 1.567,-5.994 1.567,-4.911C1.567,-3.926 0.837,-3.356 -0.041,-3.356L-1.233,-3.356L-1.233,-3.03L0,-3.03C1.045,-3.03 1.94,-3.73 1.94,-4.911C1.94,-6.222 1.045,-6.825 0,-6.825M19.571,-1.359L19.571,-1.676M18.839,-4.626C19.113,-4.952 19.652,-5.294 20.307,-5.294C21.426,-5.294 22.148,-4.512 22.148,-3.404C22.148,-2.305 21.418,-1.531 20.307,-1.531C20.042,-1.531 19.792,-1.588 19.571,-1.676L19.571,-1.359C19.808,-1.264 20.076,-1.205 20.365,-1.205C21.667,-1.205 22.513,-2.126 22.513,-3.404C22.513,-4.699 21.667,-5.62 20.365,-5.62C19.71,-5.62 19.171,-5.31 18.839,-4.976L18.839,-5.546L18.474,-5.546L18.474,0.244L18.839,0.244L18.839,-4.626ZM16.766,-1.287L16.766,-2.175C16.451,-1.572 15.846,-1.214 15.042,-1.214C13.864,-1.214 13.292,-2.028 13.292,-3.095L13.292,-5.546L13.657,-5.546L13.657,-3.136C13.657,-2.24 14.121,-1.556 15.125,-1.556C15.987,-1.556 16.592,-2.077 16.766,-2.745L16.766,-5.546L17.131,-5.546L17.131,-1.287L16.766,-1.287ZM12.43,-5.489L9.909,-3.551L12.571,-1.344L12.571,-1.287L12.106,-1.287L9.519,-3.47L9.519,-1.287L9.154,-1.287L9.154,-7.069L9.519,-7.069L9.519,-3.641L11.99,-5.546L12.43,-5.546L12.43,-5.489ZM6.551,-5.66C7.197,-5.66 7.753,-5.441 8.151,-5.082L7.96,-4.805C7.612,-5.123 7.139,-5.318 6.559,-5.318C5.415,-5.318 4.627,-4.504 4.627,-3.421C4.627,-2.337 5.415,-1.515 6.559,-1.515C7.139,-1.515 7.612,-1.71 7.96,-2.028L8.151,-1.751C7.753,-1.393 7.197,-1.173 6.551,-1.173C5.199,-1.173 4.254,-2.142 4.254,-3.421C4.254,-4.699 5.199,-5.66 6.551,-5.66M2.844,-5.546L3.209,-5.546L3.209,-1.287L2.844,-1.287L2.844,-5.546ZM3.035,-7.045C3.192,-7.045 3.3,-6.972 3.3,-6.768C3.3,-6.564 3.192,-6.483 3.035,-6.483C2.869,-6.483 2.753,-6.564 2.753,-6.768C2.753,-6.972 2.869,-7.045 3.035,-7.045" style="fill:#fff;fill-rule:nonzero;"/>
    </g>
    <defs>
        <linearGradient id="_Linear1" x1="0" y1="0" x2="1" y2="0" gradientUnits="userSpaceOnUse" gradientTransform="matrix(1,0,0,-1,0,0.0190941)"><stop offset="0" style="stop-color:#a81e39;stop-opacity:1"/><stop offset="1" style="stop-color:#da1f35;stop-opacity:1"/></linearGradient>
    </defs>
</svg>
