<?xml version="1.0" encoding="UTF-8" standalone="no"?>
<!DOCTYPE svg PUBLIC "-//W3C//DTD SVG 1.1//EN" "http://www.w3.org/Graphics/SVG/1.1/DTD/svg11.dtd">
<svg width="100%" height="100%" viewBox="0 0 94 42" version="1.1" xmlns="http://www.w3.org/2000/svg" xmlns:xlink="http://www.w3.org/1999/xlink" xml:space="preserve" xmlns:serif="http://www.serif.com/" style="fill-rule:evenodd;clip-rule:evenodd;stroke-linejoin:round;stroke-miterlimit:2;">
    <g transform="matrix(1,0,0,1,0.00018839,-0.0004)">
        <g transform="matrix(3.78783,0,0,3.78783,67.3564,26.7757)">
            <path d="M0,-1.82C0.177,-1.891 0.424,-1.917 0.636,-1.917C1.29,-1.917 1.741,-1.537 1.741,-0.857C1.741,-0.055 1.241,0.308 0.574,0.318L0.574,1.245C0.591,1.245 0.609,1.246 0.627,1.246C1.997,1.246 2.819,0.477 2.819,-0.892C2.819,-2.138 1.944,-2.871 0.654,-2.871C0,-2.871 -0.645,-2.721 -1.07,-2.545L-1.07,2.749L0,2.749L0,-1.82ZM5.974,-1.811C5.806,-1.891 5.585,-1.935 5.32,-1.935C4.675,-1.935 4.242,-1.537 4.242,-0.839C4.242,-0.088 4.71,0.336 5.461,0.336C5.593,0.336 5.797,0.327 5.974,0.292L5.974,-1.811ZM7.034,1.061C6.566,1.185 5.956,1.246 5.426,1.246C4.065,1.246 3.163,0.522 3.163,-0.804C3.163,-2.059 4.003,-2.871 5.231,-2.871C5.505,-2.871 5.797,-2.837 5.974,-2.748L5.974,-4.569L7.034,-4.569L7.034,1.061ZM-2.728,-1.811C-2.896,-1.891 -3.117,-1.935 -3.382,-1.935C-4.027,-1.935 -4.46,-1.537 -4.46,-0.839C-4.46,-0.088 -3.992,0.336 -3.241,0.336C-3.108,0.336 -2.905,0.327 -2.728,0.292L-2.728,-1.811ZM-1.668,1.061C-2.136,1.185 -2.746,1.246 -3.276,1.246C-4.637,1.246 -5.538,0.522 -5.538,-0.804C-5.538,-2.059 -4.699,-2.871 -3.47,-2.871C-3.196,-2.871 -2.905,-2.837 -2.728,-2.748L-2.728,-4.569L-1.668,-4.569L-1.668,1.061Z" style="fill:#fff;fill-rule:nonzero;"/>
        </g>
        <g transform="matrix(17.93,-15.045,-15.045,-17.93,0.203257,35.4266)">
            <path d="M1.51,0.68L0.739,0.835L1.043,-0.007C1.045,-0.014 1.044,-0.025 1.038,-0.032L0.616,-0.535C0.611,-0.541 0.6,-0.545 0.592,-0.543L0.545,-0.534C0.541,-0.533 0.538,-0.531 0.534,-0.528L0.533,-0.528C0.53,-0.524 0.527,-0.521 0.525,-0.517L0.508,-0.472C0.505,-0.465 0.507,-0.454 0.512,-0.447L0.888,0.001C0.891,0.005 0.892,0.011 0.89,0.014L0.623,0.756L0.124,0.161C0.113,0.148 0.108,0.124 0.114,0.107L0.386,-0.661C0.389,-0.669 0.395,-0.677 0.402,-0.684C0.41,-0.69 0.419,-0.695 0.428,-0.696L1.231,-0.83C1.249,-0.833 1.272,-0.825 1.283,-0.811L1.782,-0.216L1.256,-0.125C1.247,-0.124 1.239,-0.117 1.236,-0.109L1.221,-0.064C1.219,-0.06 1.219,-0.056 1.22,-0.051L1.22,-0.05C1.221,-0.045 1.223,-0.041 1.225,-0.038L1.255,-0C1.26,0.006 1.271,0.01 1.279,0.009L1.84,-0.088L1.553,0.644C1.55,0.652 1.543,0.66 1.536,0.667C1.528,0.673 1.519,0.678 1.51,0.68Z" style="fill:url(#_Linear1);fill-rule:nonzero;"/>
        </g>
    </g>
    <defs>
        <linearGradient id="_Linear1" x1="0" y1="0" x2="1" y2="0" gradientUnits="userSpaceOnUse" gradientTransform="matrix(1,0,0,1,0,0.00215656)"><stop offset="0" style="stop-color:#a91d38;stop-opacity:1"/><stop offset="1" style="stop-color:#db1e35;stop-opacity:1"/></linearGradient>
    </defs>
</svg>
