<?xml version="1.0" encoding="UTF-8" standalone="no"?>
<!DOCTYPE svg PUBLIC "-//W3C//DTD SVG 1.1//EN" "http://www.w3.org/Graphics/SVG/1.1/DTD/svg11.dtd">
<svg width="100%" height="100%" viewBox="0 0 136 40" version="1.1" xmlns="http://www.w3.org/2000/svg" xmlns:xlink="http://www.w3.org/1999/xlink" xml:space="preserve" xmlns:serif="http://www.serif.com/" style="fill-rule:evenodd;clip-rule:evenodd;stroke-linejoin:round;stroke-miterlimit:2;">
    <g transform="matrix(0.35744,0,0,0.35744,-10.8596,-10.7546)">
        <path d="M237.39,128.88C237.559,132.453 239.77,133.602 243.127,133.602C245.508,133.602 247.973,132.749 247.973,130.497C247.973,127.819 243.637,127.308 239.26,126.075C234.924,124.843 230.376,122.887 230.376,117.32C230.376,110.688 237.049,108.096 242.744,108.096C248.78,108.096 254.86,111.028 254.903,117.872L246.997,117.872C247.123,115.109 244.531,114.216 242.108,114.216C240.408,114.216 238.281,114.812 238.281,116.809C238.281,119.147 242.661,119.572 247.081,120.804C251.459,122.039 255.88,124.078 255.88,129.56C255.88,137.255 249.333,139.721 242.661,139.721C235.689,139.721 229.525,136.661 229.484,128.881L237.389,128.881M258.97,108.732L283.157,108.732L283.157,115.066L266.877,115.066L266.877,120.38L281.755,120.38L281.755,126.5L266.877,126.5L266.877,132.28L283.581,132.28L283.581,139.083L258.971,139.083L258.971,108.733M294.293,121.91L300.925,121.91C303.305,121.91 304.58,120.635 304.58,118.34C304.58,116.085 302.796,115.066 300.585,115.066L294.293,115.066L294.293,121.91ZM286.388,108.732L301.861,108.732C307.217,108.732 312.487,111.156 312.487,117.277C312.487,120.551 310.915,123.653 307.725,124.885L307.725,124.971C310.957,125.736 311.892,129.348 312.148,132.239C312.232,133.515 312.358,137.977 313.423,139.083L305.6,139.083C304.92,138.061 304.792,135.088 304.707,134.236C304.497,131.176 303.986,128.031 300.287,128.031L294.292,128.031L294.292,139.083L286.387,139.083L286.387,108.733M331.107,139.083L322.008,139.083L312.444,108.733L320.691,108.733L326.643,131.304L326.725,131.304L332.679,108.732L340.924,108.732L331.107,139.082M341.479,108.732L349.384,108.732L349.384,139.082L341.479,139.082L341.479,108.732M373.315,119.572C372.889,116.512 370.509,114.897 367.195,114.897C362.093,114.897 360.137,119.403 360.137,123.907C360.137,128.414 362.093,132.919 367.195,132.919C370.892,132.919 373.017,130.794 373.315,127.309L381.221,127.309C380.796,135.129 375.057,139.721 367.364,139.721C358.183,139.721 352.231,132.707 352.231,123.907C352.231,115.109 358.183,108.096 367.364,108.096C373.911,108.096 381.009,112.261 381.221,119.572L373.315,119.572M383.73,108.732L407.916,108.732L407.916,115.066L391.636,115.066L391.636,120.38L406.513,120.38L406.513,126.5L391.636,126.5L391.636,132.28L408.34,132.28L408.34,139.083L383.73,139.083L383.73,108.733M239.132,84.906L244.444,84.906C246.911,84.906 248.696,83.886 248.696,81.122C248.696,78.275 246.869,77.128 244.444,77.128L239.132,77.128L239.132,84.906ZM231.225,70.794L245.635,70.794C251.288,70.794 256.604,73.387 256.604,80.57C256.604,88.095 252.309,91.027 245.634,91.027L239.132,91.027L239.132,101.144L231.225,101.144L231.225,70.794M264.836,89.836L271.723,89.836L268.365,79.21L268.28,79.21L264.836,89.836ZM264.328,70.794L272.361,70.794L283.711,101.144L275.464,101.144L273.594,95.703L263.009,95.703L261.096,101.143L252.977,101.143L264.328,70.793M292.213,83.97L298.843,83.97C301.223,83.97 302.5,82.696 302.5,80.4C302.5,78.147 300.713,77.127 298.504,77.127L292.214,77.127L292.213,83.97ZM284.307,70.794L299.777,70.794C305.135,70.794 310.405,73.216 310.405,79.337C310.405,82.61 308.833,85.714 305.645,86.947L305.645,87.031C308.875,87.796 309.811,91.409 310.065,94.299C310.151,95.575 310.277,100.039 311.34,101.144L303.519,101.144C302.839,100.124 302.712,97.148 302.627,96.297C302.413,93.237 301.904,90.091 298.205,90.091L292.213,90.091L292.213,101.144L284.307,101.144L284.307,70.794M333.163,81.634C332.737,78.573 330.356,76.957 327.041,76.957C321.94,76.957 319.985,81.463 319.985,85.968C319.985,90.475 321.94,94.98 327.041,94.98C330.739,94.98 332.864,92.855 333.163,89.37L341.069,89.37C340.643,97.191 334.905,101.78 327.212,101.78C318.031,101.78 312.079,94.768 312.079,85.968C312.079,77.169 318.031,70.156 327.212,70.156C333.757,70.156 340.856,74.321 341.069,81.634L333.163,81.634M343.577,70.794L367.764,70.794L367.764,77.127L351.484,77.127L351.484,82.441L366.361,82.441L366.361,88.562L351.484,88.562L351.484,94.343L368.189,94.343L368.189,101.143L343.577,101.143L343.577,70.793M370.995,70.794L378.901,70.794L378.901,94.344L393.056,94.344L393.056,101.144L370.995,101.144L370.995,70.794M237.39,53.036C237.559,56.606 239.77,57.754 243.127,57.754C245.508,57.754 247.973,56.904 247.973,54.651C247.973,51.973 243.637,51.463 239.26,50.231C234.924,48.997 230.376,47.041 230.376,41.474C230.376,34.843 237.049,32.249 242.744,32.249C248.78,32.249 254.86,35.183 254.903,42.027L246.997,42.027C247.123,39.264 244.531,38.369 242.108,38.369C240.408,38.369 238.281,38.966 238.281,40.964C238.281,43.302 242.661,43.727 247.081,44.959C251.459,46.192 255.88,48.232 255.88,53.716C255.88,61.409 249.333,63.875 242.661,63.875C235.689,63.875 229.525,60.814 229.484,53.036L237.389,53.036M258.388,32.888L266.293,32.888L266.293,56.436L280.448,56.436L280.448,63.237L258.388,63.237L258.388,32.888M296.21,57.074C301.312,57.074 303.268,52.569 303.268,48.062C303.268,43.557 301.312,39.052 296.211,39.052C291.111,39.052 289.155,43.557 289.155,48.062C289.155,52.569 291.111,57.074 296.211,57.074M296.211,32.249C305.776,32.249 311.173,39.263 311.173,48.062C311.173,56.861 305.776,63.875 296.211,63.875C286.647,63.875 281.248,56.861 281.248,48.062C281.248,39.263 286.647,32.249 296.211,32.249M329.239,63.237L320.143,63.237L310.579,32.887L318.825,32.887L324.776,55.459L324.861,55.459L330.812,32.887L339.059,32.887L329.239,63.237M346.244,51.93L353.129,51.93L349.772,41.304L349.687,41.304L346.244,51.93ZM345.734,32.888L353.768,32.888L365.116,63.237L356.869,63.237L355,57.797L344.416,57.797L342.501,63.237L334.384,63.237L345.734,32.888M366.293,32.888L374.201,32.888L374.201,44.534L384.189,32.888L394.009,32.888L382.787,44.831L395.412,63.237L385.593,63.237L377.432,50.485L374.202,53.885L374.202,63.237L366.293,63.237L366.293,32.888" style="fill:#3f464c;fill-rule:nonzero;"/>
        <path d="M214.465,36.655C213.484,34.397 211.229,32.987 208.568,32.935L208.568,32.928L208.418,32.928L185.965,32.924L184.933,34.488C184.417,35.263 179.329,42.87 171.684,53.56L171.487,53.833C164.624,63.43 155.5,75.371 144.549,87.568C119.762,115.168 109.177,120.457 104.407,122.714C104.184,122.82 103.979,122.916 103.789,123.008C98.375,125.63 92.672,126.903 86.351,126.903C63.804,126.903 45.461,108.559 45.461,86.012C45.461,63.465 63.804,45.12 86.349,45.12C99.302,45.12 111.53,51.308 119.231,61.707L128.308,48.993C118.036,37.236 102.896,30.088 86.292,30.088C55.468,30.088 30.389,55.18 30.389,86.041C30.389,116.891 55.468,141.995 86.292,141.995C119.403,141.995 145.425,119.055 162.127,101.812C175.241,88.258 212.228,45.628 212.599,45.199L212.573,45.174C215.835,41.12 215.012,37.908 214.465,36.654" style="fill:#f47216;fill-rule:nonzero;"/>
        <path d="M109.47,90.97C103.518,99.299 95.266,108.111 84.148,107.047C73.752,106.054 65.168,97.047 65.219,86.007C65.247,80.192 67.231,75.37 71.352,71.157C75.401,67.02 80.805,64.917 86.364,64.889C92.769,64.856 101.331,68.128 105.59,77.281C106.154,78.491 106.473,79.546 106.473,79.546L116.323,65.773L115.843,64.962C109.045,55.453 98.027,49.78 86.351,49.78C66.371,49.78 50.119,66.033 50.119,86.012C50.119,105.991 66.372,122.244 86.351,122.244C93.813,122.244 98.718,120.287 101.758,118.816C101.96,118.718 102.178,118.616 102.414,118.505C106.541,116.551 116.922,111.36 141.083,84.455C151.861,72.451 160.903,60.625 167.699,51.123L167.895,50.851C172.136,44.931 176.296,38.954 180.375,32.921L151.104,32.915L151.043,32.919C150.679,33.428 114.935,83.549 112.051,87.415L109.471,90.969" style="fill:#f47216;fill-rule:nonzero;"/>
    </g>
</svg>
