<svg xmlns="http://www.w3.org/2000/svg" version="1.1" xmlns:xlink="http://www.w3.org/1999/xlink" xmlns:svgjs="http://svgjs.dev/svgjs" width="1000" height="1000"><style>
    #light-icon {
      display: inline;
    }
    #dark-icon {
      display: none;
    }

    @media (prefers-color-scheme: dark) {
      #light-icon {
        display: none;
      }
      #dark-icon {
        display: inline;
      }
    }
  </style><g id="light-icon"><svg xmlns="http://www.w3.org/2000/svg" version="1.1" xmlns:xlink="http://www.w3.org/1999/xlink" xmlns:svgjs="http://svgjs.dev/svgjs" width="1000" height="1000"><g clip-path="url(#SvgjsClipPath1037)"><rect width="1000" height="1000" fill="#ffffff"></rect><g transform="matrix(1.5345268542199488,0,0,1.5345268542199488,254.4757033248082,200)"><svg xmlns="http://www.w3.org/2000/svg" version="1.1" xmlns:xlink="http://www.w3.org/1999/xlink" xmlns:svgjs="http://svgjs.dev/svgjs" width="320" height="391"><svg width="320" height="391" viewBox="0 0 320 391" fill="none" xmlns="http://www.w3.org/2000/svg">
<path fill-rule="evenodd" clip-rule="evenodd" d="M59.9824 260.036V390.432H0V0H59.9824V44.6445L98.3874 83.0429C80.6472 100.787 69.6633 125.292 69.6633 152.34C69.6633 179.389 80.6472 203.876 98.3874 221.62L59.9824 260.036Z" fill="#0A0A0A"></path>
<path fill-rule="evenodd" clip-rule="evenodd" d="M59.9824 44.6419C87.5561 17.0682 125.638 0.00802612 167.674 0.00802612C209.711 0.00802612 247.792 17.0682 275.36 44.6419L236.962 83.0459C219.217 65.3066 194.716 54.3292 167.674 54.3292C140.627 54.3292 116.126 65.3066 98.3863 83.0459L59.9824 44.6419Z" fill="#3269FF"></path>
<path fill-rule="evenodd" clip-rule="evenodd" d="M275.36 260.026C247.792 287.599 209.711 304.659 167.674 304.659C125.638 304.659 87.5561 287.599 59.9824 260.026L98.3863 221.622C116.126 239.361 140.627 250.338 167.674 250.338C194.716 250.338 219.217 239.361 236.962 221.622L275.36 260.026Z" fill="#F4B63A"></path>
<path fill-rule="evenodd" clip-rule="evenodd" d="M275.366 44.6475C302.94 72.2155 320 110.297 320 152.333C320 194.37 302.94 232.452 275.366 260.025L236.962 221.621C254.701 203.882 265.679 179.381 265.679 152.333C265.679 125.292 254.701 100.791 236.962 83.0457L275.366 44.6475Z" fill="#F43072"></path>
</svg></svg></g></g><defs><clipPath id="SvgjsClipPath1037"><rect width="1000" height="1000" x="0" y="0" rx="350" ry="350"></rect></clipPath></defs></svg></g><g id="dark-icon"><svg xmlns="http://www.w3.org/2000/svg" version="1.1" xmlns:xlink="http://www.w3.org/1999/xlink" xmlns:svgjs="http://svgjs.dev/svgjs" width="1000" height="1000"><g clip-path="url(#SvgjsClipPath1038)"><rect width="1000" height="1000" fill="#0a0a0a"></rect><g transform="matrix(1.5345268542199488,0,0,1.5345268542199488,254.4757033248082,200)"><svg xmlns="http://www.w3.org/2000/svg" version="1.1" xmlns:xlink="http://www.w3.org/1999/xlink" xmlns:svgjs="http://svgjs.dev/svgjs" width="320" height="391"><svg width="320" height="391" viewBox="0 0 320 391" fill="none" xmlns="http://www.w3.org/2000/svg">
<path fill-rule="evenodd" clip-rule="evenodd" d="M59.9824 260.036V390.432H0V0H59.9824V44.6445L98.3874 83.0429C80.6472 100.787 69.6633 125.292 69.6633 152.34C69.6633 179.389 80.6472 203.876 98.3874 221.62L59.9824 260.036Z" fill="white"></path>
<path fill-rule="evenodd" clip-rule="evenodd" d="M59.9824 44.6419C87.5561 17.0682 125.638 0.00802612 167.674 0.00802612C209.711 0.00802612 247.792 17.0682 275.36 44.6419L236.962 83.0459C219.217 65.3066 194.716 54.3292 167.674 54.3292C140.627 54.3292 116.126 65.3066 98.3863 83.0459L59.9824 44.6419Z" fill="#3269FF"></path>
<path fill-rule="evenodd" clip-rule="evenodd" d="M275.36 260.026C247.792 287.599 209.711 304.659 167.674 304.659C125.638 304.659 87.5561 287.599 59.9824 260.026L98.3863 221.622C116.126 239.361 140.627 250.338 167.674 250.338C194.716 250.338 219.217 239.361 236.962 221.622L275.36 260.026Z" fill="#F4B63A"></path>
<path fill-rule="evenodd" clip-rule="evenodd" d="M275.366 44.6475C302.94 72.2155 320 110.297 320 152.333C320 194.37 302.94 232.452 275.366 260.025L236.962 221.621C254.701 203.882 265.679 179.381 265.679 152.333C265.679 125.292 254.701 100.791 236.962 83.0457L275.366 44.6475Z" fill="#F43072"></path>
</svg></svg></g></g><defs><clipPath id="SvgjsClipPath1038"><rect width="1000" height="1000" x="0" y="0" rx="350" ry="350"></rect></clipPath></defs></svg></g></svg>